<svg width="108" height="55" viewBox="0 0 108 55" fill="none" xmlns="http://www.w3.org/2000/svg">
<path d="M47.8052 0.0767687C46.3508 0.134085 46.1796 0.277375 46.6359 1.09413C46.7785 1.39504 46.9211 1.4237 47.7481 1.33772C48.8318 1.23742 49.117 1.49534 48.0904 1.62431C47.577 1.69595 47.4344 1.81058 47.4344 2.18314C47.4344 2.656 47.463 2.656 48.5181 2.58435C49.4307 2.52704 49.5448 2.55569 49.4022 2.7563C49.3166 2.88526 48.9174 2.98556 48.5466 2.98556C47.7196 2.98556 46.6645 3.48708 46.7785 3.81665C46.8641 3.9886 47.1207 4.04591 47.7196 4.01726C50.9422 3.87397 58.2428 3.97427 60.5527 4.1892C63.5756 4.47579 67.2259 4.99163 67.4256 5.16358C67.5111 5.2209 67.7393 5.27821 67.9104 5.27821C68.11 5.27821 68.0815 5.2209 67.8248 5.13492C66.1993 4.60475 72.131 5.70808 75.6102 6.58216C76.8365 6.89739 78.462 7.34159 79.175 7.59952C80.7435 8.12969 85.2208 10.279 85.2208 10.494C85.2208 10.58 84.679 10.3794 84.0231 10.0641C80.4868 8.37329 76.9791 7.16965 72.5588 6.13795C68.0244 5.06328 67.8248 5.14925 72.2451 6.26692C76.8935 7.4419 80.2016 8.64554 84.1656 10.5656C86.7037 11.7979 89.6981 13.5747 90.9814 14.6064C91.4092 14.9503 91.4092 15.0076 91.01 15.2082C90.6107 15.4088 90.7248 15.5665 92.2648 16.9134C95.4017 19.6359 97.0843 22.2581 97.8828 25.6255C98.1965 26.9437 98.225 26.9867 98.9095 26.9437C99.2802 26.9294 99.6794 26.8578 99.7935 26.8004C99.9646 26.7145 99.4513 24.0636 99.0806 22.9746C98.938 22.602 99.052 22.5017 99.7935 22.3011C100.963 21.9572 100.82 21.5417 99.5083 21.5417C98.3961 21.5417 97.8258 21.0831 98.5387 20.8109C98.9095 20.6819 98.8524 20.51 98.1965 19.5213C97.1128 17.9021 94.1184 14.893 92.0366 13.3025C89.2418 11.1961 84.5364 8.96078 77.4924 6.41021C73.2147 4.84834 66.3989 3.48708 60.7238 3.02855C58.0431 2.82795 57.5583 2.74197 57.5583 2.52704C57.5583 2.32643 57.3302 2.26911 56.4176 2.26911C55.4765 2.26911 55.2769 2.3121 55.2769 2.55569C55.2769 2.81362 55.0773 2.84227 53.138 2.84227H50.9992V1.63863C50.9992 0.162743 50.8851 -0.0378637 49.887 0.00512348C49.4877 0.0194525 48.5466 0.0481106 47.8052 0.0767687ZM93.7762 16.5122C93.7762 16.5552 93.6621 16.6268 93.491 16.6698C93.3484 16.7128 93.2059 16.6841 93.2059 16.6125C93.2059 16.5265 93.3484 16.4549 93.491 16.4549C93.6621 16.4549 93.7762 16.4835 93.7762 16.5122Z" fill="white"/>
<path d="M59.1554 0.291676C58.8417 0.807522 58.7847 2.11147 59.0699 2.25476C59.6117 2.52701 59.7828 2.4267 60.125 1.62428C60.3817 0.9938 60.5528 0.83618 61.0091 0.83618C61.6935 0.83618 62.0642 0.420638 61.5224 0.248689C60.9235 0.0624116 59.2695 0.0910697 59.1554 0.291676Z" fill="white"/>
<path d="M42.9287 0.434992L41.8165 0.578283L42.0162 1.25175C42.1302 1.60997 42.3299 2.21179 42.4724 2.57002L42.7576 3.22916L44.098 3.1002C44.8394 3.01422 45.5239 2.91392 45.6379 2.8566C45.8376 2.77063 45.5524 1.46668 45.1531 0.578283C44.982 0.234386 44.6398 0.205728 42.9287 0.434992Z" fill="white"/>
<path d="M63.5757 1.13711C63.0339 2.34075 63.0339 2.36941 63.2335 2.5127C63.3191 2.59868 63.7469 2.69898 64.1461 2.74197C64.8591 2.82794 64.9161 2.79928 65.5435 1.75326C65.8857 1.16577 66.1138 0.649925 66.0283 0.606938C65.9713 0.563951 65.4579 0.506635 64.9161 0.449319L63.918 0.377673L63.5757 1.13711Z" fill="white"/>
<path d="M39.5349 0.936515C38.7649 1.03682 38.166 1.15145 38.166 1.18011C38.166 1.20877 38.3086 1.4237 38.4797 1.65297L38.7649 2.09717L39.9627 1.8679C40.6186 1.73894 41.1889 1.62431 41.246 1.60998C41.303 1.59565 41.246 1.39504 41.1034 1.15145L40.8752 0.735909L39.5349 0.936515Z" fill="white"/>
<path d="M66.8267 0.879212C66.2278 1.72463 65.6004 2.91394 65.7145 3.01424C65.8 3.07156 66.1708 3.12887 66.5415 3.12887C66.9693 3.12887 67.2544 3.02857 67.34 2.7993C67.5681 2.36943 68.2811 1.9109 68.4807 2.06852C68.5663 2.14017 68.4522 2.45541 68.224 2.77065C67.9389 3.20052 67.9389 3.35814 68.1955 3.44411C68.9085 3.67338 69.4503 3.54441 69.9066 3.0429C70.534 2.39809 71.0758 2.52705 70.5055 3.20052C69.9922 3.831 69.9636 3.80234 70.9618 4.06026C71.8173 4.2752 71.8173 4.2752 72.3877 3.81667C73.3288 3.02857 73.9277 2.12584 73.614 1.96822C73.4428 1.88225 71.9029 1.56701 70.1348 1.2661C67.8248 0.850554 66.9122 0.750251 66.8267 0.879212Z" fill="white"/>
<path d="M35.9701 1.40938C35.5994 1.48102 35.3142 1.63864 35.3142 1.75327C35.3142 2.02553 36.6831 3.87397 36.9968 4.03159C37.1679 4.11757 40.9037 3.60172 42.1015 3.32947C42.1585 3.31514 42.1015 3.14319 42.0159 2.94258L41.8163 2.59869L40.1052 2.85661C39.1356 3.01423 38.3086 3.1002 38.2516 3.07155C38.166 3.04289 37.9093 2.64167 37.6242 2.18315C37.1108 1.29474 36.9397 1.2231 35.9701 1.40938Z" fill="white"/>
<path d="M32.8903 2.01117C32.5766 2.09715 32.2915 2.18312 32.2344 2.21178C32.1774 2.22611 32.3485 2.44104 32.5766 2.68464C33.0044 3.10018 33.0044 3.12884 32.4626 3.27213C31.9492 3.41542 31.8352 3.37243 31.4644 2.92823C31.0937 2.49836 30.9511 2.44104 30.4093 2.54135C29.5537 2.69897 29.5252 2.82793 30.2667 3.48706C30.9226 4.06022 31.3218 4.1462 32.8903 3.97425C33.2326 3.94559 33.4607 4.00291 33.5177 4.13187C33.6033 4.36113 30.3237 5.19222 29.8674 5.06326C29.7534 5.02027 29.2115 4.60473 28.6982 4.13187C28.1849 3.65901 27.7001 3.27213 27.6145 3.27213C27.529 3.27213 27.1867 3.38676 26.816 3.53005L26.1601 3.78797L27.4434 4.77668C28.3845 5.50746 28.6412 5.8227 28.413 5.95166C27.8712 6.29556 27.3864 6.13794 26.1601 5.20655C25.4757 4.70503 24.7342 4.27516 24.5346 4.27516C24.1353 4.27516 22.9661 4.64772 21.5687 5.22088L20.8272 5.52179L22.1961 6.56781C22.9661 7.1553 23.5079 7.68547 23.4224 7.77145C23.3083 7.84309 22.4813 7.4992 21.5972 6.98335C20.0572 6.13794 19.9146 6.08062 19.4584 6.29556C19.0306 6.52482 19.1161 6.61079 20.5991 7.51352C21.4831 8.05803 22.3957 8.54522 22.6524 8.61686C22.9376 8.70284 23.4794 8.57387 24.4205 8.18699C25.162 7.87175 26.873 7.22694 28.2419 6.73976C30.5519 5.923 30.7515 5.88001 31.0367 6.12361C31.3504 6.42452 31.0367 6.56781 26.1316 8.47357C23.3938 9.53392 17.348 12.8726 17.348 13.3168C17.348 13.7323 18.0325 13.6464 18.6028 13.1448C19.4584 12.4141 25.6182 9.41929 27.9852 8.57387C29.3256 8.10102 30.1811 7.6998 30.1811 7.54218C30.1811 7.39889 30.3237 7.28426 30.5233 7.28426C30.6945 7.28426 31.6641 7.02634 32.6337 6.69677C35.1718 5.86568 39.7917 4.89131 42.9572 4.50442C45.6664 4.17486 46.7216 3.84529 45.0675 3.84529C44.2975 3.84529 40.6187 4.31815 38.2232 4.71936C36.9684 4.91997 36.7688 4.83399 35.2859 3.20048C34.6299 2.45537 33.9455 1.83922 33.7744 1.83922C33.6033 1.83922 33.204 1.9252 32.8903 2.01117ZM25.4757 5.85136C26.2456 6.41019 26.2456 6.43885 25.7608 6.7111C25.4757 6.86872 25.1049 6.99768 24.9338 6.99768C24.6201 6.99768 22.3387 5.5791 22.5383 5.50746C24.1068 4.91997 24.1923 4.91997 25.4757 5.85136Z" fill="white"/>
<path d="M75.5532 3.02855C75.211 3.37245 74.9543 3.71634 74.9543 3.80232C74.9543 4.06024 76.3517 4.54743 77.5495 4.70505C78.5761 4.84834 78.6047 4.877 78.4621 5.33553C78.348 5.73674 78.4335 5.85137 78.9469 5.99466C79.3176 6.09497 79.6598 6.10929 79.7739 6.03765C81.3709 4.89133 82.369 4.13189 82.369 4.07457C82.369 4.04591 81.9127 3.87396 81.3424 3.68769C80.4013 3.40111 80.2872 3.38678 80.0306 3.60171C79.7454 3.87396 79.0609 3.91695 78.8043 3.70202C78.6902 3.61604 78.7472 3.45842 78.9183 3.35812C79.175 3.2005 78.9754 3.08587 77.9773 2.78496C77.2643 2.58435 76.5799 2.4124 76.4373 2.4124C76.2662 2.4124 75.8669 2.68465 75.5532 3.02855Z" fill="white"/>
<path d="M48.29 4.64774C43.3279 4.94865 38.7935 5.57913 35.0291 6.53917C32.5481 7.15532 31.8922 7.59952 32.5196 8.24433C33.0899 8.86048 34.4303 8.84615 37.4817 8.20134C42.8146 7.09801 48.6037 6.62515 54.3644 6.84008C56.1325 6.91173 57.7295 7.04069 57.9576 7.12666C58.1858 7.22697 58.4424 7.62818 58.528 8.04372C59.1554 10.7233 58.9272 11.1531 56.931 11.1531C55.4766 11.1531 55.8188 11.454 57.2732 11.4684C58.5565 11.4827 59.5546 10.9095 59.5546 10.1644C59.5546 9.00377 58.7276 6.7971 58.1858 6.52484C57.3873 6.12363 55.8188 5.99467 51.7122 5.99467C46.2082 5.99467 40.5902 6.5535 36.1413 7.57086C35.2003 7.77147 34.801 7.80013 34.2592 7.67117C32.8618 7.35593 33.4892 7.05502 37.3676 6.23826C42.5579 5.16358 48.9459 4.64774 55.5621 4.7767C57.9861 4.81969 58.471 4.80536 57.4158 4.70505C56.0184 4.59042 50.0296 4.54743 48.29 4.64774Z" fill="white"/>
<path d="M82.3689 5.65075C81.5989 6.18093 80.943 6.65379 80.943 6.72543C80.943 6.92604 82.7111 7.57084 82.9963 7.47054C83.1959 7.41322 83.0818 7.28426 82.6826 7.12664C82.3119 6.98335 82.0837 6.78275 82.1407 6.69677C82.1978 6.6108 83.0533 6.91171 84.0229 7.37024L85.7911 8.22998L87.3025 7.45621L88.7854 6.68244L87.6447 6.18093C85.734 5.33551 84.1655 4.70503 83.9944 4.70503C83.8803 4.70503 83.1674 5.13491 82.3689 5.65075Z" fill="white"/>
<path d="M60.4957 5.66511C60.2676 5.95169 60.6954 6.06632 62.9198 6.3529C65.6005 6.68247 70.2204 7.64251 72.8155 8.38762C78.0913 9.92083 84.4794 12.7293 82.6542 12.7293C82.0553 12.7293 82.3976 13.0732 83.7949 13.8757C84.5935 14.3342 85.2208 14.7497 85.2208 14.807C85.2208 14.85 84.9071 15.1079 84.5079 15.3659L83.8235 15.8244L85.2494 16.8848C87.2171 18.3177 88.2152 19.3493 89.356 21.0832C90.6678 23.0892 90.7819 23.4618 90.24 23.5621C89.9263 23.6194 89.7837 23.8343 89.7837 24.2785C89.7837 25.0236 90.4396 25.2672 91.9796 25.124L92.9777 25.038L92.8066 24.3215C92.2363 22.1292 90.3826 19.4926 87.873 17.2573L86.3045 15.8531L86.9034 15.3086C87.7019 14.5778 87.6734 14.1909 86.6182 13.4028C85.1353 12.2708 79.2606 9.64858 75.3821 8.40195C71.3611 7.09801 68.6804 6.51052 63.7468 5.85138C61.0661 5.49316 60.6383 5.4645 60.4957 5.66511Z" fill="white"/>
<path d="M62.1212 7.88609V8.64553L64.0604 8.91778C65.8856 9.16137 71.7318 10.5083 72.7014 10.8952C73.0721 11.0528 73.1007 11.2677 72.9295 12.2278C72.6444 13.632 72.7299 13.7753 73.9847 14.1765L74.9828 14.4774L76.3232 13.7753C77.0647 13.3884 78.0913 12.9442 78.6046 12.8009C79.0894 12.6433 79.5172 12.4857 79.5172 12.4284C79.5172 12.3138 76.095 10.9095 74.384 10.3364C72.2736 9.6199 68.937 8.76016 66.9693 8.43059C65.9141 8.24431 64.8019 7.92907 64.4027 7.71414C64.0034 7.4992 63.3475 7.26994 62.9197 7.22695C62.1212 7.14098 62.1212 7.14098 62.1212 7.88609ZM75.9239 12.0558C76.1521 12.2278 76.1521 12.3711 75.9239 12.543C75.4676 12.9013 74.8402 12.8583 74.7262 12.4714C74.5266 11.7549 75.2395 11.5113 75.9239 12.0558Z" fill="white"/>
<path d="M87.3597 8.02941C86.162 8.67422 86.0479 8.78885 86.3331 9.08976C86.5042 9.27604 86.7894 9.43365 87.0175 9.43365C87.4453 9.43365 90.069 8.12971 90.069 7.90045C90.069 7.81447 89.7553 7.64252 89.3845 7.52789C88.7571 7.31296 88.6716 7.32729 87.3597 8.02941Z" fill="white"/>
<path d="M16.2641 7.61385C16.036 7.75714 16.2071 7.95775 17.0341 8.4306L18.1463 9.07541L18.8307 8.74584C20.1141 8.15835 20.3707 8.50225 19.1444 9.13273L18.3459 9.53394L16.8345 8.84615C16.0075 8.47359 15.1804 8.18701 14.9808 8.23C14.7812 8.27299 14.3819 8.47359 14.0968 8.6742L13.5264 9.06108L15.1234 9.77753C16.0075 10.1787 16.6634 10.5943 16.5778 10.6803C16.3782 10.9668 15.5512 10.6803 14.2964 9.87784C13.2412 9.2187 13.1271 9.17571 12.6709 9.40498C12.2431 9.61992 12.3286 9.70589 13.9827 10.537L15.7508 11.4397L15.266 11.8552C14.7812 12.2708 14.7812 12.2851 15.3801 12.5001C15.9789 12.7007 16.1215 12.6577 19.1159 11.1245L22.2244 9.53394L21.7111 9.04675C20.884 8.27298 20.2852 8.04372 19.5722 8.27299C19.0589 8.4306 18.8878 8.40195 17.9467 7.94342C16.7774 7.37026 16.6919 7.35593 16.2641 7.61385ZM17.3478 10.1214C16.92 10.1931 15.6367 9.57693 15.6367 9.30468C15.6367 9.16139 15.9789 9.26169 16.6349 9.57693C17.2052 9.84918 17.5189 10.0928 17.3478 10.1214Z" fill="white"/>
<path d="M45.5809 7.85745C42.3584 8.20135 39.1929 8.78884 37.4533 9.362C36.6833 9.61993 35.0577 10.1214 33.8885 10.4797C32.7193 10.8379 31.2934 11.3394 30.7515 11.583C30.2097 11.8123 30.78 11.669 32.0348 11.2391C36.4551 9.74889 41.1321 8.76018 45.809 8.35897C47.1494 8.24434 48.3471 8.14403 48.4612 8.14403C48.6038 8.14403 48.7179 8.01507 48.7179 7.85745C48.7179 7.51356 48.6894 7.51356 45.5809 7.85745Z" fill="white"/>
<path d="M51.9404 8.07237C51.0278 8.40194 50.5715 9.20437 50.9993 9.73454C52.14 11.1245 56.4177 10.7089 56.4177 9.2187C56.4177 8.14402 53.7085 7.45622 51.9404 8.07237ZM54.7352 8.30164C56.104 8.65986 55.99 9.80619 54.5355 10.1358C53.4804 10.365 53.0526 10.3364 52.2826 9.93515C50.5145 9.06108 52.5393 7.69982 54.7352 8.30164Z" fill="white"/>
<path d="M89.6982 8.83182C88.8141 9.29035 88.0726 9.72022 88.0726 9.8062C88.0726 9.87784 88.586 10.1931 89.1848 10.494L90.3256 11.0528L92.1792 10.3794C93.2059 10.0068 94.0614 9.63425 94.0614 9.54828C94.0614 9.40499 91.894 8.1297 91.4948 8.0294C91.4092 8.01507 90.6107 8.37329 89.6982 8.83182Z" fill="white"/>
<path d="M29.3255 9.92082C27.9852 10.4223 26.5308 11.0385 26.046 11.3107L25.1904 11.7836L26.3312 11.3107C26.9585 11.0671 28.4415 10.494 29.6107 10.0498C32.2059 9.07541 32.377 9.00376 32.0348 9.00376C31.8636 9.00376 30.6659 9.41931 29.3255 9.92082Z" fill="white"/>
<path d="M36.5689 11.2391C34.6011 11.8266 33.8597 12.1561 34.0308 12.2994C34.1163 12.3711 34.43 12.3854 34.7152 12.3424C35.1145 12.2994 35.4282 12.4284 35.97 12.8726C36.3978 13.2308 36.74 13.4028 36.8826 13.3168C36.9681 13.2308 36.797 12.9299 36.4548 12.6576C35.7704 12.0988 35.8274 11.8266 36.6829 11.5973C37.1392 11.4827 37.3674 11.5543 38.1088 12.0845C39.1355 12.8153 39.2781 12.8296 40.1621 12.4714C40.6755 12.2564 40.7895 12.1131 40.6184 11.8122C40.3903 11.368 39.2496 10.7232 38.6507 10.7232C38.4511 10.7232 37.51 10.9525 36.5689 11.2391ZM39.4207 11.4683C39.934 11.8266 40.0196 12.4427 39.5918 12.4427C39.221 12.4427 37.8807 11.4254 38.0518 11.2677C38.3085 11.0528 38.9929 11.1531 39.4207 11.4683Z" fill="white"/>
<path d="M49.4307 11.7406C47.0923 11.8982 43.6131 12.3568 42.3868 12.672C41.0179 13.0302 41.5883 13.0159 43.8127 12.6433C44.9534 12.4427 47.1493 12.1848 48.7178 12.0558C50.2863 11.9269 51.5696 11.7693 51.5696 11.6976C51.5696 11.6403 51.5411 11.5973 51.5126 11.5973C51.4555 11.6116 50.5429 11.6833 49.4307 11.7406Z" fill="white"/>
<path d="M23.4223 11.8266C22.7664 11.9555 23.0515 12.4141 24.0497 12.8583C24.9052 13.2308 25.1619 13.2738 25.6467 13.1449C26.4737 12.9299 26.217 12.4427 25.0763 12.0558C24.0782 11.7119 23.9926 11.6976 23.4223 11.8266Z" fill="white"/>
<path d="M53.5659 13.1305C53.5659 13.9329 53.4518 14.6207 53.2807 14.6637C53.1381 14.7067 52.9955 14.8786 52.9955 15.0363C52.9955 15.2082 52.7959 15.3085 52.4537 15.3085C52.1685 15.3085 51.5126 15.3515 51.0278 15.3945C50.2578 15.4805 50.1437 15.4518 50.1437 15.1796C50.1437 15.0219 49.9726 14.8786 49.773 14.8786C48.8889 14.8786 44.9819 15.4518 43.8127 15.7527C42.2442 16.1683 42.7861 16.2686 44.5542 15.8817C46.2367 15.5235 49.2882 15.1222 49.5163 15.2369C49.8015 15.3802 49.1741 15.5378 47.3489 15.7957C45.3812 16.0536 42.5579 16.7128 42.8431 16.8417C42.9287 16.8847 41.9876 17.2859 40.7042 17.7158C35.7421 19.421 33.0329 21.556 31.4074 25.0523C30.4378 27.1013 30.4948 27.044 30.1526 26.7288C29.9244 26.5425 29.9815 26.2559 30.2952 25.7257C32.32 22.1865 32.7477 21.6563 34.7725 20.1661C36.0273 19.2347 39.1643 17.7445 41.0179 17.2C42.6435 16.7128 41.902 16.5981 39.6776 16.9707C36.7973 17.4722 33.204 19.4639 31.0366 21.7852C29.7818 23.1322 29.1545 24.3215 28.8693 25.8834L28.6696 26.915H26.2171C24.8767 26.915 23.2797 26.9867 22.7094 27.0583C21.7112 27.2016 21.6542 27.2303 21.4546 28.0184L21.255 28.8351L20.7416 28.5056C20.0572 28.0757 20.0572 27.7605 20.7702 27.3019C21.1694 27.044 21.6827 26.915 22.4242 26.8864L23.4794 26.8434L22.5668 26.5855C21.7398 26.3705 21.5401 26.3562 20.6561 26.5425C18.0895 27.087 18.1465 28.7348 20.7702 29.4226C21.3976 29.5946 21.5972 29.7522 21.7683 30.311C22.3672 32.4461 24.3064 35.0539 25.3616 35.1829C25.6753 35.2259 26.2741 35.5555 26.6734 35.928C28.3559 37.4039 32.9473 39.8685 36.5977 41.2584C39.9343 42.5194 44.8964 43.4651 49.0885 43.637L51.2844 43.723V42.8346C51.2844 42.3618 51.2274 41.9605 51.1704 41.9605C51.1133 41.9605 49.9726 41.8602 48.6323 41.7456C43.5275 41.3014 38.4228 40.0405 35.1718 38.4356C34.1451 37.9198 33.0044 37.5185 32.0918 37.3466C29.297 36.8164 28.47 36.2862 28.47 35.0396C28.47 34.4091 28.2704 34.0223 27.6145 33.3631C26.5023 32.2598 25.4756 30.4543 25.0764 28.8638C24.8767 28.1473 24.7056 27.5025 24.6771 27.4309C24.5916 27.2303 33.4892 27.0727 39.1072 27.173C42.8716 27.2446 43.2994 27.216 43.2994 27.0154C43.2994 26.8004 42.7575 26.7718 38.1661 26.7718C34.3447 26.7718 33.0329 26.7288 33.0329 26.5998C33.0329 26.4995 32.7192 26.2989 32.32 26.127C31.6926 25.8834 31.607 25.7831 31.8351 25.4105C32.0063 25.1669 32.2629 24.694 32.4625 24.3501C32.7762 23.734 32.8048 23.734 33.8314 23.8056C34.8866 23.8916 34.8866 23.8916 35.5425 23.1465C36.398 22.1578 38.7935 20.5673 40.1624 20.0801C41.3602 19.6502 41.5313 19.4496 40.9039 19.1917C40.362 18.9624 37.7099 20.295 35.8562 21.7136C34.3162 22.9172 33.9455 22.731 35.3714 21.47C36.5406 20.4383 41.3031 18.0454 43.442 17.3862C45.039 16.9134 48.233 16.3116 49.2026 16.3116C50.2293 16.3116 49.2311 16.6698 47.7482 16.8417C46.0086 17.0423 43.442 17.6585 42.0161 18.2316L41.1891 18.5755L42.5294 19.378L43.8983 20.1804L44.9534 19.9368C48.176 19.2203 52.6533 18.7905 53.1096 19.1487C53.1951 19.2347 53.1951 19.9368 53.0811 20.7106C52.91 21.8856 52.8529 22.0145 52.6818 21.5417C52.5677 21.2264 52.5677 20.9112 52.6533 20.8395C52.9385 20.5816 49.4308 20.9112 48.0049 21.2551L46.579 21.6133L45.866 21.1834C45.3527 20.8682 45.039 20.7965 44.7538 20.8825C44.4116 20.9972 44.6683 21.2121 45.9801 21.9572C46.8927 22.473 47.6912 22.9029 47.7482 22.9029C47.8337 22.9029 48.6893 22.774 49.6589 22.602C52.1115 22.1865 54.9918 22.2868 57.0451 22.8599L58.4995 23.2755L59.4691 22.7453C60.0109 22.4444 60.3817 22.1291 60.2676 22.0432C59.9254 21.7709 57.6725 21.1978 56.1325 20.9972L54.564 20.7965L54.4784 19.8938L54.3929 18.9911L55.8473 19.0914C57.8721 19.2203 60.068 19.6645 61.722 20.252C62.9768 20.6962 63.1479 20.7249 63.5472 20.5243C63.9179 20.338 63.8894 20.2807 63.262 20.0228C62.2639 19.6216 59.6402 18.9624 58.2143 18.7475C57.5299 18.6472 56.988 18.5039 56.988 18.4323C56.988 18.289 56.9025 18.2746 58.7276 18.5469C60.4102 18.7905 62.8057 19.4353 64.089 19.9798L64.916 20.3237L65.6575 19.9368C66.0568 19.7362 66.399 19.5213 66.399 19.4639C66.399 19.3923 65.9712 19.2203 65.4864 19.0627C64.6594 18.7905 64.5168 18.7905 64.089 18.9768C63.6898 19.163 63.5472 19.1487 62.9483 18.9194C61.0661 18.1743 56.218 17.3576 54.7066 17.5295L53.8511 17.6298V16.3975C53.8511 15.7384 53.9936 15.1366 54.1362 15.0936C54.3073 15.0506 54.4214 14.4488 54.4214 13.7753V12.5573L55.9899 12.6576C61.722 13.0159 68.8515 14.6351 72.9011 16.4978C74.384 17.2 76.751 18.7761 78.2625 20.0658C79.0895 20.7965 79.5173 21.0401 80.0021 21.0401C80.8861 21.0401 81.0287 20.8252 80.5154 20.3237L80.0591 19.8938H83.082C85.5631 19.8938 86.0764 19.8508 86.0764 19.6789C86.0764 19.5069 85.5631 19.4639 83.1105 19.4639C81.0858 19.4639 80.0876 19.5213 80.0306 19.6359C79.9736 19.7219 79.5173 19.4496 79.0325 19.0197C77.8632 17.9737 74.9829 16.025 74.6407 16.025C74.4696 16.025 74.4125 15.9677 74.4981 15.896C74.8118 15.6524 73.5 15.0363 70.9048 14.1622C67.5967 13.0445 65.7145 12.5717 62.7487 12.0988C60.4387 11.7406 57.5584 11.5686 58.8417 11.8839C59.3265 11.9985 59.298 12.0128 58.6991 11.9412C58.2999 11.8982 56.988 11.8122 55.7903 11.7692L53.5659 11.6833V13.1305ZM63.4046 12.4714C67.1404 13.1162 73.0437 14.936 73.9277 15.7241C74.0703 15.853 73.7281 15.7527 73.1577 15.4948C70.3345 14.2482 65.2868 12.8869 61.4083 12.3137C60.2106 12.1275 59.8684 12.0415 60.5528 12.0988C61.1802 12.1418 62.4635 12.3137 63.4046 12.4714ZM53.2807 16.7844V17.8304L50.6 17.9881C49.06 18.0884 47.1493 18.3033 46.1512 18.5182L44.3546 18.8765L43.556 18.5612C43.1283 18.3893 42.7575 18.203 42.7575 18.16C42.7005 17.9737 47.2634 17.028 49.003 16.8704C51.6266 16.6411 51.5696 16.6554 51.5696 16.1683C51.5696 15.7814 51.6552 15.7384 52.4252 15.7384H53.2807V16.7844ZM23.622 27.6172C23.622 27.7605 23.4223 27.9324 23.1657 27.9754C22.7664 28.047 22.7379 28.2047 22.8805 28.9641C23.1657 30.1677 23.7931 31.486 24.6201 32.6037C25.3901 33.6354 25.4471 33.793 25.0764 33.793C24.7056 33.793 23.1657 31.8729 22.6238 30.7266C21.9394 29.1934 21.7398 27.6315 22.2246 27.4739C22.909 27.2589 23.622 27.3306 23.622 27.6172ZM36.7402 40.3414C37.5102 40.6279 38.0806 40.9002 38.0236 40.9289C37.5958 41.1438 33.0329 38.9085 33.0329 38.4786C33.0329 38.4069 33.5462 38.6792 34.1736 39.0804C34.801 39.4816 35.9703 40.0548 36.7402 40.3414ZM47.3204 42.3904C50.3719 42.7057 50.657 42.7486 50.3433 42.9206C49.773 43.1928 41.3602 41.9605 41.075 41.5593C41.0179 41.4734 41.7309 41.5593 42.672 41.7456C43.6131 41.9319 45.6949 42.2328 47.3204 42.3904Z" fill="white"/>
<path d="M95.2876 12.5L93.5195 13.1019L94.6603 14.1049C96.3999 15.5665 97.7972 17.0424 99.3372 18.9195C100.079 19.8509 100.82 20.6103 100.963 20.6103C101.419 20.6103 105.297 20.0085 105.554 19.9082C105.782 19.7935 104.984 18.5039 104.585 18.3893C104.442 18.332 104.413 18.4896 104.499 18.7045C104.642 19.0914 104.556 19.1201 102.902 19.421L101.162 19.7362L100.877 19.3493C99.0235 16.9564 98.995 17.157 101.391 16.6125C102.816 16.2829 102.845 16.2686 102.56 15.8674C102.218 15.3515 101.989 15.3515 100.079 15.8817C99.2231 16.1253 98.4246 16.2686 98.3391 16.2113C98.225 16.1396 97.7972 15.7957 97.398 15.4375L96.6565 14.764L98.1965 14.2482C99.052 13.9616 99.765 13.675 99.765 13.6177C99.765 13.3741 97.7117 11.8696 97.398 11.8839C97.1984 11.8839 96.2573 12.1562 95.2876 12.5ZM96.8561 14.0189C96.4854 14.1622 96.0862 14.2482 95.9436 14.2052C95.801 14.1622 96.0006 14.0046 96.3713 13.8613C97.2554 13.5317 97.6832 13.675 96.8561 14.0189Z" fill="white"/>
<path d="M49.4307 12.1705C45.2956 12.4714 38.2801 13.804 36.9398 14.5635C36.455 14.8214 36.455 14.85 36.9398 15.1509L37.4531 15.4662L39.1357 14.9647C42.5863 13.9186 47.4059 13.1592 50.5429 13.1592C51.3984 13.1592 51.8547 13.0876 51.9688 12.9443C52.1399 12.7007 51.6836 11.9986 51.3699 12.0272C51.2273 12.0415 50.3718 12.0989 49.4307 12.1705Z" fill="white"/>
<path d="M9.02076 12.672C8.70706 13.0016 8.7641 13.0732 9.59112 13.3885C10.6178 13.804 10.7318 14.1336 9.96186 14.6064L9.44853 14.936L8.27929 14.6351C7.28116 14.3915 7.0245 14.3772 6.76784 14.5348C6.25451 14.85 6.62525 15.0936 8.36485 15.5951C9.67668 15.9677 10.0189 16.025 10.3896 15.8674C11.1026 15.5665 13.1274 13.7324 12.9562 13.5174C12.8137 13.3168 9.99037 12.2995 9.5626 12.2995C9.44853 12.2995 9.19187 12.4714 9.02076 12.672Z" fill="white"/>
<path d="M28.2989 12.8582C27.4434 13.0445 26.1886 13.8469 26.1886 14.2195C26.1886 14.4631 26.0175 14.5347 25.4186 14.5204C23.2512 14.5061 17.0628 20.5529 16.0647 23.648C15.9791 23.9633 15.7225 24.1925 15.5228 24.1925C15.2947 24.1925 15.038 24.3358 14.9525 24.5078C14.6673 24.9806 14.3821 29.0644 14.6102 29.0644C14.7243 29.0644 15.0665 28.9927 15.3802 28.9211C15.865 28.7778 15.9221 28.5915 15.9506 27.2303C15.9506 26.3849 16.0647 25.4105 16.1502 25.0523C16.3498 24.4648 16.4354 24.4075 17.1198 24.4504C17.8043 24.4791 17.9183 24.4361 18.0609 23.9489C19.002 21.1404 21.2549 18.4322 24.3064 16.4118C24.9338 15.9963 25.2475 15.6667 25.1619 15.4805C25.0478 15.2942 25.2475 15.1366 25.7323 14.9646C26.3026 14.7783 26.4737 14.7783 26.4737 14.9216C26.4737 15.0219 26.873 15.2942 27.3578 15.5378C28.0708 15.8817 28.47 15.9533 29.6107 15.9533C31.1507 15.9533 32.0062 15.6667 32.6336 14.9216C33.147 14.3198 32.8618 13.7037 31.8922 13.2308C31.0366 12.8153 29.3255 12.6433 28.2989 12.8582ZM30.4377 13.3741C31.3503 13.6034 31.607 13.8469 31.607 14.4488C31.607 14.936 30.4663 15.4518 29.4111 15.4518C28.4415 15.4518 27.3293 14.85 27.3293 14.3055C27.3293 13.8183 28.413 13.1592 29.183 13.1592C29.4396 13.1592 30.01 13.2595 30.4377 13.3741Z" fill="white"/>
<path d="M18.7454 13.4028C17.4906 14.1335 15.5228 15.6811 14.154 17.028C12.7566 18.4036 10.7033 21.4987 11.1025 21.6276C11.3022 21.6849 11.1881 22.1291 10.8174 22.8456C9.3059 25.8404 9.3059 29.437 10.7888 33.0765C11.6729 35.2546 12.7851 36.9167 14.0684 38.0344C14.4391 38.364 15.038 38.9658 15.3517 39.3813C15.6654 39.7969 16.7206 40.7139 17.6902 41.416C19.5154 42.763 23.1657 44.8264 23.7075 44.8264C23.8786 44.8264 24.506 44.5971 25.1049 44.2962L26.16 43.7803L24.2208 42.6913C21.7398 41.3014 19.715 39.9402 18.4887 38.8655C17.9469 38.4069 16.8632 37.6905 16.0932 37.2893C15.038 36.7591 14.4106 36.2719 13.8688 35.5268C12.7566 34.1082 12.8136 33.5064 14.0684 32.8043L15.0665 32.2598L14.4391 31.8586L13.8117 31.4574L14.6673 31.5577C16.8347 31.8442 18.0324 31.8156 19.0305 31.4717C19.5724 31.2854 20.1998 30.9845 20.4279 30.7839C20.8272 30.4687 20.7416 30.483 19.8861 30.8842C18.118 31.7009 16.2643 31.8156 14.8669 31.1851C13.9543 30.7552 12.9847 30.9272 12.4429 31.6006L12.0151 32.1451L11.7014 31.572C10.9885 30.3397 10.6748 27.4309 11.017 25.5538C11.3877 23.5764 12.4999 20.6676 13.3269 19.4496C14.5532 17.6442 17.1769 15.1939 19.2302 13.9329C19.772 13.6034 20.1998 13.2738 20.1998 13.1878C20.1998 12.8296 19.6294 12.9156 18.7454 13.4028ZM17.2624 38.192C19.3157 39.8828 21.1124 41.1151 23.0516 42.2328C25.3615 43.5511 25.6467 43.809 24.9338 44.0956C24.2208 44.3965 18.8309 41.2728 17.0343 39.5103C16.6065 39.0661 15.8936 38.5646 15.4658 38.4213C14.5532 38.0774 14.7528 37.8051 15.9221 37.8051C16.521 37.8051 16.8917 37.9198 17.2624 38.192Z" fill="white"/>
<path d="M80.1159 13.5031L79.46 13.847L80.1444 14.0189C82.7966 14.7067 82.0551 16.4262 79.1748 16.3259C77.6348 16.2829 77.0074 15.1079 78.1481 14.4918C79.0037 14.0189 78.4618 13.761 77.4352 14.1622C76.3515 14.5921 75.9523 15.3086 76.4656 15.9104C77.7489 17.4436 82.1692 17.3863 82.9392 15.8387C83.1103 15.5092 83.3669 15.1223 83.5095 14.979C83.7092 14.8214 83.7092 14.6351 83.538 14.4631C83.2814 14.2339 81.0855 13.1592 80.8573 13.1592C80.8003 13.1592 80.4581 13.3168 80.1159 13.5031Z" fill="white"/>
<path d="M13.4408 14.7783C10.5605 17.3719 7.48053 20.9255 7.85127 21.2121C7.9083 21.2837 8.25052 21.3267 8.62125 21.3267C9.16309 21.3267 9.36272 21.1691 9.90456 20.2807C10.7886 18.9051 12.9845 16.5838 14.8382 15.0649C16.2641 13.8899 16.2926 13.8326 15.7793 13.6464C15.4941 13.5317 15.1804 13.4457 15.0948 13.4457C15.0093 13.4457 14.2678 14.0476 13.4408 14.7783Z" fill="white"/>
<path d="M21.6542 14.7784C19.9716 15.896 17.8043 17.7301 16.8061 18.9338C15.3232 20.7392 13.5836 24.1782 14.268 23.9633C14.3821 23.9203 14.4962 23.7197 14.4962 23.5334C14.4962 23.0319 15.4658 21.1405 16.3499 19.9941C17.4621 18.4896 19.4298 16.6268 21.1124 15.4375C22.9375 14.1765 23.1371 14.0189 22.966 14.0189C22.8805 14.0189 22.3101 14.3628 21.6542 14.7784Z" fill="white"/>
<path d="M98.9951 14.5348C97.7118 14.9217 97.5407 15.1079 98.1396 15.4948C98.4533 15.7241 98.5958 15.7098 99.9932 15.3802C100.792 15.1939 101.476 14.979 101.476 14.9217C101.476 14.7497 100.621 14.1622 100.392 14.1622C100.278 14.1765 99.651 14.3342 98.9951 14.5348Z" fill="white"/>
<path d="M56.3321 14.5491C56.218 14.5921 56.1324 14.9647 56.1324 15.3659V16.0967L58.0146 16.3689C59.0698 16.5265 61.009 16.9277 62.3494 17.2716C63.6612 17.6012 64.8019 17.8878 64.8304 17.8878C64.859 17.8878 65.0586 17.6872 65.2582 17.4579C65.4578 17.2143 65.743 17.028 65.9141 17.028C66.0567 17.028 65.9712 16.8991 65.6575 16.7271C64.9445 16.3259 61.9216 15.5808 59.412 15.1653C57.5013 14.85 55.9899 14.4488 57.5583 14.6638C61.1231 15.1509 63.2049 15.5808 65.5434 16.3402C66.513 16.6412 66.513 16.6412 66.0282 16.3546C65.2297 15.8817 62.492 15.2226 59.7257 14.8214C57.045 14.4202 56.6173 14.3915 56.3321 14.5491Z" fill="white"/>
<path d="M79.0323 14.8357C78.576 14.9216 78.5475 15.5378 78.9753 15.6668C79.1179 15.7241 79.5742 15.7241 79.9734 15.6811C80.4582 15.6094 80.6579 15.4948 80.6579 15.2512C80.6579 14.8357 79.9449 14.6494 79.0323 14.8357Z" fill="white"/>
<path d="M33.0329 15.9533C28.9833 17.9164 25.4756 20.6963 24.3919 22.8313C23.5078 24.6081 23.4793 24.5078 24.506 24.4505C25.3615 24.4075 25.4185 24.3645 26.0745 23.2182C27.3863 20.9255 29.9244 18.8908 33.8599 16.985L36.3695 15.7671L35.7421 15.3659L35.0861 14.9646L33.0329 15.9533Z" fill="white"/>
<path d="M89.2702 15.6954C89.3272 15.7671 89.9261 16.3546 90.6105 17.028C92.9205 19.292 94.0327 21.1261 94.7742 23.9776C95.1164 25.2959 95.3445 25.7687 95.7723 25.9837C96.3427 26.2559 96.3427 26.2559 96.3427 25.5968C96.3427 24.0206 94.5745 20.553 92.6068 18.2746C91.5231 17.0137 89.8405 15.5951 89.4413 15.5951C89.2987 15.5951 89.2131 15.6381 89.2702 15.6954Z" fill="white"/>
<path d="M56.4176 16.5838C56.4176 16.7558 56.5602 16.8847 56.7028 16.8847C56.8739 16.8847 56.988 16.7988 56.988 16.6841C56.988 16.5695 56.8739 16.4262 56.7028 16.3832C56.5602 16.3402 56.4176 16.4262 56.4176 16.5838Z" fill="white"/>
<path d="M69.2508 16.7414C68.0816 17.3289 68.9656 18.3176 70.6767 18.3176C71.1615 18.3176 71.5322 18.3606 71.5322 18.4179C71.5322 18.4753 71.076 18.7618 70.5056 19.0484L69.4504 19.5929L67.5968 18.8048C66.5986 18.3749 65.6861 18.0454 65.6005 18.0884C65.5149 18.1314 66.1994 18.5756 67.1405 19.0627C69.3364 20.2234 70.6482 21.1548 71.9315 22.4587C73.1007 23.6051 74.0989 25.3532 74.0989 26.2273V26.7718H72.3878C71.1045 26.7718 70.6197 26.7145 70.5056 26.5568C70.3915 26.4135 69.9638 26.3419 69.2793 26.3419H68.2527L67.9105 25.4965C67.5112 24.4075 66.399 23.1895 64.9731 22.2295C64.3457 21.8282 63.9465 21.4557 64.089 21.4127C64.7735 21.1978 67.6538 23.5334 68.3953 24.8947C68.5664 25.2386 68.7945 25.4822 68.8516 25.4392C69.3649 25.1956 67.2545 22.7883 65.6575 21.8139C65.0016 21.3984 64.7735 21.1261 64.8875 20.9112C65.1157 20.4813 64.6594 20.5386 63.6898 21.0402C63.1479 21.3124 62.5776 21.47 62.0643 21.47C61.2658 21.47 61.2372 21.4987 61.1517 22.1865C61.1232 22.3011 60.6098 22.6307 60.011 22.9173L58.8988 23.4331L59.6402 23.9346C60.6954 24.6224 61.4654 25.5681 61.6935 26.4422L61.8932 27.2016H70.1349C77.2644 27.2016 78.3766 27.2303 78.3766 27.4166C78.3766 27.5885 77.9773 27.6315 76.4088 27.6315H74.4696L74.27 28.5916C73.9278 30.2537 72.0456 32.704 70.1634 33.9076C69.6786 34.2229 69.6501 34.2372 69.1653 33.9793C68.709 33.7214 68.7375 33.664 69.7071 32.9476C71.133 31.8872 72.3308 30.5546 72.73 29.5946C72.9296 29.1504 73.0152 28.7635 72.9296 28.7205C72.8726 28.6919 72.4733 28.6202 72.0741 28.5629C71.3611 28.4769 71.3326 28.5056 70.8763 29.394C70.6482 29.8955 70.2489 30.5546 69.9923 30.8412C69.593 31.3141 69.5075 31.3571 68.9371 31.2138C68.2812 31.0275 68.2812 31.0418 69.1082 29.5086C69.3934 28.9355 69.4789 28.5486 69.3078 28.4626C69.1367 28.3766 68.8516 28.6919 68.5664 29.308C68.2812 29.8382 67.7679 30.569 67.3686 30.9129C66.9123 31.3284 66.8268 31.5004 67.112 31.4574C67.3401 31.4001 67.7679 31.486 68.1101 31.615C68.709 31.8586 68.709 31.8586 67.4257 32.6037C64.9161 34.0939 62.2354 35.054 59.3265 35.5411C56.9025 35.9424 56.5318 35.8994 55.5622 35.1256C54.9348 34.6241 54.7066 34.2802 54.7066 33.7787C54.7066 33.1195 54.7066 33.1052 55.7903 33.0049C56.3607 32.9619 57.5014 32.7613 58.2999 32.5894L59.7543 32.2598L61.1802 33.0192L62.6061 33.7787L62.0072 34.0509C61.6935 34.2085 60.8665 34.4665 60.2106 34.6384C59.0414 34.9393 58.4425 35.3549 59.4976 35.1543C61.722 34.7387 65.8286 33.2055 65.8286 32.8186C65.8286 32.532 65.4009 32.618 64.5453 33.0766C64.089 33.3058 63.6328 33.5064 63.5187 33.5064C63.4046 33.5064 62.6917 33.1482 61.9502 32.704C60.781 32.0162 60.6384 31.8872 61.0376 31.7726C62.0357 31.5004 64.1176 29.8812 64.6879 28.9641C65.0016 28.4483 65.2583 27.9468 65.2583 27.8464C65.2583 27.7175 64.6879 27.6458 63.4046 27.6029C61.8932 27.5742 61.5509 27.6029 61.5509 27.7748C61.5509 28.2333 60.125 29.4943 58.9843 30.0675C54.1648 32.4891 45.7805 31.4717 43.8413 28.2333L43.499 27.6315H40.9609H38.4228L38.5939 28.1617C38.8791 28.9784 39.3069 29.6233 40.1054 30.4257C40.9324 31.2568 42.615 32.3601 43.0998 32.3601C43.2709 32.3601 44.0979 32.0305 44.9249 31.615C47.1493 30.5117 46.8071 31.0991 44.4116 32.4891L42.3583 33.6784L41.0465 32.9189C39.7061 32.1595 38.3088 31.1994 38.0806 30.8842C38.0236 30.7839 37.8525 30.7552 37.7669 30.8126C37.3677 30.9845 39.478 32.4317 41.5883 33.4204C42.7576 33.965 44.3546 34.5524 45.2101 34.753C47.2919 35.2402 47.4916 35.0683 45.4383 34.5668C44.5257 34.3375 43.7557 34.0796 43.6701 33.9936C43.6131 33.8933 44.3261 33.3201 45.2672 32.704C47.1493 31.5147 47.4345 31.443 46.2653 32.4461C45.5238 33.0766 45.5238 33.0909 46.0371 33.2915C46.8642 33.6211 49.2312 33.9363 50.7711 33.9363H52.14V33.1482C52.14 32.575 52.2541 32.3601 52.5392 32.3601C53.0811 32.3601 53.2807 33.5924 53.2807 36.8881V39.6679H52.2826H51.2845V38.9658V38.278L49.3737 38.192C48.2901 38.149 46.7216 37.9914 45.866 37.8481C44.5542 37.6332 44.2975 37.5329 44.3261 37.2606C44.3546 37.0027 43.9838 36.8021 42.8146 36.4295C41.9305 36.143 41.3032 35.8421 41.3032 35.6988C41.3032 35.5125 41.2461 35.4838 41.075 35.6271C40.7613 35.8564 36.5121 33.6784 34.801 32.4031C34.1451 31.9302 33.4892 31.5004 33.3181 31.4717C32.8618 31.4001 31.9207 29.8812 31.55 28.6632L31.2648 27.6315H30.1526C29.5252 27.6315 29.0404 27.6888 29.0404 27.7605C29.0404 27.8321 29.24 28.3766 29.4682 28.9784C29.9245 30.2394 30.78 31.2854 31.7496 31.7869C32.1204 31.9875 32.7192 32.4174 33.09 32.7613C33.974 33.6067 40.1339 36.6731 42.5579 37.4756C43.6987 37.8625 45.5238 38.3067 46.9782 38.5359C49.5734 38.9515 49.3452 39.1091 46.6931 38.7222C44.4972 38.3926 41.7309 37.6332 39.6491 36.7878C37.938 36.1 37.3106 36.014 37.3106 36.4439C37.3106 36.7305 40.1909 37.8481 42.4439 38.4356C44.4687 38.9658 47.2634 39.4386 49.3737 39.5819C50.6 39.6822 50.7141 39.7252 50.7141 40.0691C50.7141 40.6566 51.0848 40.8429 52.14 40.7856C52.9385 40.7569 53.1381 40.6709 53.3092 40.327C53.6229 39.7682 53.9937 39.6679 55.7618 39.6679C57.644 39.6679 58.0432 39.7539 58.5851 40.2554L58.9843 40.6709L57.9006 40.7569C56.5603 40.8572 55.9899 41.0148 56.2181 41.2011C56.4462 41.3874 60.5813 41.0435 61.1802 40.7856C61.4369 40.6853 61.5509 40.4703 61.4369 40.2267C61.2943 39.8685 61.4369 39.8112 63.9179 39.2094C65.3724 38.8512 66.8268 38.4356 67.1975 38.2923C67.7964 38.0487 67.8249 37.9771 67.5112 37.5329C67.169 37.06 67.1975 37.017 68.1671 36.6015C68.709 36.3579 69.3934 36.0857 69.7071 35.9853C69.9923 35.8994 70.1063 35.8134 69.9352 35.8134C69.7641 35.7991 68.8516 36.143 67.8534 36.5728C65.9142 37.4183 63.5472 38.106 61.1232 38.5216C58.9558 38.8941 59.1554 38.6792 61.3513 38.2493C62.3209 38.0631 63.7468 37.7192 64.5453 37.4612C66.6842 36.7878 70.0778 35.2832 71.3897 34.4378C73.6996 32.9619 75.6388 30.7266 76.0381 29.0787L76.2377 28.2763L77.521 28.262C79.2606 28.262 79.8025 28.1044 79.8025 27.6458C79.8025 27.2303 80.2588 26.9151 80.8576 26.9151C81.0573 26.9151 81.2284 27.044 81.2284 27.216C81.2284 27.4452 81.3424 27.4882 81.7417 27.4166C82.7683 27.216 82.7969 27.259 82.7113 28.5916L82.6543 29.9098L83.6524 30.0101C84.1942 30.0531 84.6505 30.1678 84.6505 30.2394C84.6505 30.3827 81.3424 30.2824 80.4584 30.1104C79.888 29.9958 80.0021 29.1504 80.658 28.8495C81.7417 28.348 81.1428 27.9754 79.9736 28.4196C79.6599 28.5342 79.2036 28.6345 78.9469 28.6345C78.5762 28.6345 78.3195 28.9355 77.8632 29.8382C77.2358 31.1565 75.867 32.618 74.0989 33.9363C72.5304 35.0969 72.0741 35.1829 73.3574 34.0653C75.5533 32.1595 77.4925 29.5086 77.1788 28.8065C77.0933 28.6775 76.8936 28.9498 76.694 29.4226C75.8385 31.3571 74.1559 33.2342 71.8459 34.7817C71.19 35.2116 70.6767 35.6128 70.6767 35.6844C70.6767 35.7561 71.133 35.9137 71.7034 36.057L72.73 36.3006L74.0133 35.5841C76.3233 34.3088 77.8062 33.0766 79.4603 31.0275C79.7454 30.6979 79.9451 30.6406 80.8576 30.6406C82.6543 30.6406 82.7683 30.7552 82.0839 31.7869C80.9432 33.4921 79.004 35.1399 76.1522 36.7734C75.2111 37.3179 74.6692 37.7478 74.7833 37.8768C74.9829 38.149 74.8118 38.149 74.0133 37.8768C73.3859 37.6762 73.2718 37.7048 71.7034 38.4499C67.3401 40.5277 59.7258 42.3904 55.5907 42.3904C54.8207 42.3904 54.7351 42.3474 54.564 41.674C54.45 41.2728 54.2788 40.9575 54.1363 40.9575C53.5659 40.9575 53.3663 42.5337 53.8511 43.1929L54.1648 43.5797L56.931 43.4651C58.4425 43.4078 59.9539 43.3791 60.2676 43.3935C62.1213 43.5224 63.0339 43.4221 65.6575 42.7773C69.3364 41.8889 72.1596 40.9002 75.04 39.4673C77.2929 38.364 80.0876 36.6302 80.0876 36.3579C80.0876 36.0427 79.4888 36.3006 77.9203 37.3036C76.6655 38.106 76.1807 38.3353 75.8955 38.2063C75.6103 38.0917 75.8385 37.8911 76.8936 37.2893C78.6903 36.2719 82.4832 33.0909 83.2531 31.9589L83.852 31.0705L85.1639 31.1421C85.9053 31.1851 86.6753 31.1708 86.9035 31.0848C87.1316 31.0132 87.3883 30.6263 87.5023 30.2251C87.6734 29.5946 87.6164 29.4943 87.1886 29.4943C86.162 29.4943 85.7913 29.3223 85.7913 28.8352V28.348L87.0175 28.4339C88.7856 28.5629 89.6412 28.176 89.6412 27.2733C89.6412 26.7145 89.4986 26.5425 88.8427 26.2559C88.3579 26.041 87.6734 25.912 87.1031 25.912H86.1905L85.8483 24.5364C85.6487 23.777 85.4205 23.1035 85.335 23.0319C85.2494 22.9602 84.679 22.9029 84.0231 22.9029C83.082 22.9029 82.9109 22.9459 83.0535 23.1322C83.3957 23.5764 82.8539 23.648 82.4832 23.2038C82.1124 22.7596 81.4565 22.645 80.715 22.8886C80.4013 22.9889 80.4013 23.1609 80.7721 23.8486C81.0002 24.3072 81.2854 25.0236 81.3995 25.4248L81.5706 26.1556L80.658 26.2416C80.0876 26.3132 79.6884 26.4422 79.6028 26.6285C79.4603 26.8721 79.2036 26.9151 77.8062 26.9151H76.1522L75.9525 25.955C75.5818 24.1782 74.1274 22.3298 71.7889 20.5816C71.1615 20.1374 70.6767 19.7362 70.6767 19.6932C70.6767 19.6646 71.133 19.4926 71.6748 19.3207C74.0989 18.5612 73.3289 16.4549 70.6197 16.4549C70.1634 16.4549 69.5645 16.5838 69.2508 16.7414ZM63.3191 23.3041C64.5739 24.1352 65.4294 25.0809 65.6861 25.9693L65.8857 26.6285H65.0016C64.5168 26.6285 64.1176 26.6142 64.1176 26.5855C64.1176 26.5568 63.975 26.1556 63.8039 25.6971C63.4616 24.7514 62.8057 24.0206 61.6935 23.3615C61.2658 23.1035 61.0091 22.8456 61.1232 22.7596C61.5224 22.4444 62.3494 22.645 63.3191 23.3041ZM85.1353 26.4279C85.2494 27.8035 85.1924 28.5342 84.9927 28.7205C84.7361 28.9355 84.679 28.5486 84.6505 27.044C84.6505 25.9693 84.565 24.866 84.4794 24.6081C84.3368 24.2499 84.3654 24.1639 84.622 24.2785C84.8216 24.3645 85.0213 25.2242 85.1353 26.4279ZM83.1391 25.6541C83.082 25.912 83.025 25.7401 83.025 25.2672C83.025 24.7944 83.082 24.5794 83.1391 24.7944C83.1961 25.0093 83.1961 25.3962 83.1391 25.6541ZM88.3579 26.5568C88.8142 26.8291 88.7856 27.5742 88.3294 27.8608C87.8731 28.133 86.1905 28.1187 85.9624 27.8321C85.7342 27.5312 85.7342 26.5568 85.9909 26.4422C86.3331 26.2559 88.0157 26.3419 88.3579 26.5568ZM67.0549 35.5125C64.7164 36.6158 61.8646 37.4469 58.7277 37.9484C56.0184 38.364 55.8188 38.3496 55.5051 37.7192C55.277 37.2606 55.5051 37.189 57.701 36.9024C60.5243 36.5442 62.7772 35.971 65.4009 34.9537L67.6538 34.0796L68.2527 34.3805L68.823 34.6671L67.0549 35.5125ZM66.5416 38.192C66.2279 38.3067 64.9161 38.6649 63.6328 38.9801C61.8076 39.4243 61.0947 39.539 60.4958 39.453C59.7258 39.3527 59.7543 39.3383 61.1232 39.0948C61.9217 38.9515 63.4902 38.6076 64.6594 38.321C66.7412 37.8195 67.6823 37.7478 66.5416 38.192ZM74.6692 38.6362C74.6692 38.7652 72.7585 39.5963 70.5912 40.413C68.5949 41.1725 64.6594 42.1468 61.9787 42.5767C59.4406 42.9779 55.1059 43.3505 54.7922 43.2072C54.45 43.0209 54.9918 42.9206 57.4729 42.72C62.9483 42.2901 68.709 40.9289 72.673 39.1234C73.8707 38.5646 74.6692 38.3783 74.6692 38.6362Z" fill="white"/>
<path d="M66.6556 34.882C64.5167 35.9997 60.0109 37.2606 57.3587 37.4756C56.4746 37.5472 56.0183 37.8051 56.7598 37.8051C57.8435 37.8051 61.8075 36.9741 63.6041 36.3722C65.6574 35.6988 68.0529 34.5811 67.7963 34.4378C67.7107 34.4092 67.1974 34.5954 66.6556 34.882Z" fill="white"/>
<path d="M4.25811 16.7988C4.08701 16.8991 3.6022 17.4579 3.23147 18.0454C2.37593 19.292 2.34741 19.2634 5.3418 19.8222C7.3951 20.2091 7.45213 20.2091 7.85138 19.9512C8.10805 19.7792 8.1936 19.4926 8.10805 19.1774C8.02249 18.9051 8.10805 18.4466 8.27915 18.1457C8.67841 17.4866 8.33619 17.243 6.56807 16.8704C5.08514 16.5409 4.68589 16.5409 4.25811 16.7988ZM6.36845 18.6042C6.36845 18.8335 6.19734 18.9768 5.82661 19.0054C5.14217 19.0771 4.77144 18.7619 5.11366 18.418C5.51291 18.0454 6.36845 18.1744 6.36845 18.6042Z" fill="white"/>
<path d="M58.3283 16.8274C58.1002 16.9421 58.3569 17.1713 58.7276 17.1713C58.8702 17.1713 58.9843 17.071 58.9843 16.9564C58.9843 16.7415 58.642 16.6698 58.3283 16.8274Z" fill="white"/>
<path d="M61.893 17.9164C62.0356 18.1314 62.6915 18.246 62.6915 18.0597C62.6915 17.9881 62.4919 17.8734 62.2353 17.8304C61.9501 17.7731 61.836 17.8161 61.893 17.9164Z" fill="white"/>
<path d="M24.9622 20.5816C23.6504 22.0432 22.3956 24.2928 22.7948 24.4218C23.1941 24.5364 23.1941 24.5364 23.7645 23.3328C24.0496 22.7453 24.7056 21.6276 25.2474 20.8539C25.7892 20.0801 26.1885 19.421 26.16 19.3923C26.1029 19.3636 25.5611 19.8938 24.9622 20.5816Z" fill="white"/>
<path d="M66.2563 20.2664L65.5433 20.6533L66.6841 21.2694C67.3115 21.6133 68.11 22.1865 68.4522 22.5447C68.7944 22.9029 69.2507 23.1895 69.4503 23.1895C69.8496 23.1895 70.7051 24.0493 71.0758 24.7944C71.2184 25.1383 71.418 25.1956 72.2451 25.1956H73.2147L72.7869 24.4361C72.1025 23.2468 70.2488 21.4557 68.8229 20.639C68.0814 20.2377 67.3685 19.8938 67.2259 19.8938C67.0548 19.8938 66.627 20.0658 66.2563 20.2664Z" fill="white"/>
<path d="M74.555 20.8539C75.0969 21.2981 75.5246 21.7136 75.5246 21.7853C75.5246 21.8426 75.6387 21.8999 75.8098 21.8999C75.9524 21.8999 75.9809 21.7853 75.8954 21.642C75.5532 21.1978 74.0702 20.0371 73.8136 20.0371C73.671 20.0371 74.0132 20.4097 74.555 20.8539Z" fill="white"/>
<path d="M38.993 21.2121C37.6527 22.0718 36.6546 23.1322 36.0272 24.3358C35.4853 25.3675 35.4853 25.3388 36.1412 25.3388C36.4835 25.3388 36.7401 25.1956 36.8542 24.9663C37.282 24.1066 38.7364 22.7739 40.1338 21.9285C41.0463 21.3697 41.4456 21.0401 41.1889 21.0401C40.9323 21.0401 40.2193 21.3984 39.5634 21.8282C38.9075 22.2724 38.3086 22.5877 38.2231 22.559C38.0234 22.4587 39.1642 21.5846 39.9912 21.1978C40.7326 20.8395 40.9608 20.467 40.4475 20.467C40.3049 20.467 39.649 20.8109 38.993 21.2121Z" fill="white"/>
<path d="M1.83408 21.2838C1.72 21.513 1.57741 21.7996 1.49186 21.9286C1.32075 22.2438 2.37592 22.4874 4.087 22.5447C4.7144 22.559 5.45586 22.6307 5.74104 22.688C6.11178 22.7597 6.22585 22.7167 6.22585 22.5304C6.22585 22.3728 6.3114 22.1292 6.39696 21.9572C6.53955 21.6993 6.28289 21.6133 4.45773 21.2838C3.31701 21.0688 2.29036 20.8969 2.20481 20.8969C2.09074 20.8969 1.91963 21.0688 1.83408 21.2838Z" fill="white"/>
<path d="M43.8696 21.6276C43.8696 21.7136 44.497 22.1578 45.267 22.6307C46.3222 23.2612 46.7499 23.4188 46.9496 23.2898C47.1777 23.1609 46.864 22.8886 45.8374 22.2868C44.44 21.4987 43.8696 21.2981 43.8696 21.6276Z" fill="white"/>
<path d="M6.96744 22.0145C6.65374 22.2725 5.68413 25.3675 5.4845 26.7145C5.19932 28.9498 6.56818 34.0223 7.50928 34.1799C7.68039 34.2086 8.0226 34.1513 8.30778 34.0509C8.73555 33.879 8.73555 33.793 8.39334 33.0766C7.11003 30.5976 6.85336 26.5425 7.79446 23.9776C8.47889 22.0575 8.47889 21.9859 7.73742 21.9286C7.42372 21.8999 7.05299 21.9429 6.96744 22.0145Z" fill="white"/>
<path d="M42.0161 22.5017C41.4172 22.8456 40.6472 23.4474 40.2479 23.863C39.5635 24.5938 38.7935 26.127 39.0502 26.2559C39.1072 26.2846 40.1054 26.3419 41.2746 26.3706L43.3849 26.4135L43.7557 25.7401C43.9838 25.3819 44.6112 24.7514 45.153 24.3358L46.1512 23.5907L44.8679 22.8599C44.1549 22.4444 43.5846 22.0718 43.5846 22.0145C43.5846 21.7566 42.9857 21.9429 42.0161 22.5017Z" fill="white"/>
<path d="M104.414 22.6593C102.902 22.8026 102.588 23.0032 103.159 23.4474C103.501 23.734 107.294 23.3901 107.066 23.0892C106.98 22.9746 106.895 22.7883 106.895 22.6737C106.895 22.4444 106.552 22.4444 104.414 22.6593Z" fill="white"/>
<path d="M76.8078 22.9029C77.15 23.1895 78.0911 25.081 78.0911 25.5538C78.0911 25.7831 78.2337 26.084 78.4048 26.1986C78.8896 26.5282 78.4904 24.7084 77.8915 23.7054C77.6063 23.2325 77.1786 22.817 76.9789 22.7883C76.7223 22.7453 76.6652 22.7883 76.8078 22.9029Z" fill="white"/>
<path d="M101.276 22.8743C100.535 22.9316 100.535 22.9459 100.877 24.1209C101.02 24.5938 101.219 25.4822 101.333 26.084L101.533 27.2017H102.389H103.273L103.073 26.1556C102.788 24.5651 102.275 22.9029 102.075 22.86C101.989 22.8313 101.619 22.8456 101.276 22.8743Z" fill="white"/>
<path d="M0.63631 23.7197C0.550756 23.949 0.436684 24.1925 0.379648 24.2929C0.294094 24.3932 0.63631 24.5078 1.17815 24.5508C1.69148 24.5938 2.71812 24.6797 3.51663 24.7514C4.28662 24.823 4.97105 24.8803 4.99957 24.866C4.99957 24.8517 5.08512 24.6797 5.14216 24.4791C5.19919 24.2499 5.08512 24.1209 4.79994 24.0922C4.5718 24.0779 3.77329 24.0206 3.03182 23.9776C1.91962 23.906 1.66296 23.8343 1.66296 23.6051C1.66296 23.1895 0.835936 23.2755 0.63631 23.7197Z" fill="white"/>
<path d="M49.6302 23.777C46.864 24.4648 45.2099 26.1413 45.8373 27.5742C46.5218 29.1074 48.9743 30.1678 52.1398 30.3111C57.3301 30.5546 61.0659 27.6888 58.6704 25.3245C58.0716 24.7084 56.389 23.949 55.1057 23.6767C53.6513 23.3758 51.0846 23.4188 49.6302 23.777ZM54.5638 24.0779C55.3909 24.2642 55.5334 24.5364 54.7064 24.4075C52.6816 24.0779 49.5161 24.5221 48.5465 25.2672C48.0332 25.6541 47.5769 25.7401 47.5769 25.4392C47.5769 25.1956 49.1739 24.4361 50.2861 24.1496C51.3128 23.8773 53.5372 23.8343 54.5638 24.0779ZM54.9631 25.1526C56.9308 25.8977 57.4442 26.9007 56.3605 27.9038C54.2501 29.8812 48.4325 29.1647 48.4325 26.9294C48.4325 25.2672 52.3965 24.1926 54.9631 25.1526Z" fill="white"/>
<path d="M104.898 24.0349L103.615 24.1209L103.7 25.5538C103.729 26.3419 103.843 27.0727 103.9 27.1587C104.043 27.3593 106.467 27.4166 107.294 27.259C107.893 27.1443 107.921 26.3419 107.322 26.3419C106.78 26.3419 106.78 26.1986 107.351 25.998C107.721 25.8547 107.778 25.6541 107.607 24.866C107.379 23.8057 107.55 23.863 104.898 24.0349Z" fill="white"/>
<path d="M23.5363 25.5108C23.3652 26.1699 23.5648 26.3419 24.5059 26.3419C25.1903 26.3419 25.3329 26.2702 25.504 25.8547C25.7322 25.2242 25.504 25.0523 24.5059 25.0523C23.7929 25.0523 23.6789 25.1239 23.5363 25.5108Z" fill="white"/>
<path d="M0.237061 25.8261C0.237061 26.2846 0.379651 26.3133 2.88924 26.3706L4.79994 26.4279V26.0267C4.79994 25.6828 4.68587 25.6255 4.02996 25.6255C3.57367 25.6255 2.54702 25.5825 1.74852 25.5395C0.265579 25.4392 0.237061 25.4535 0.237061 25.8261Z" fill="white"/>
<path d="M89.9263 26.0553C90.2115 26.2129 90.4966 26.3419 90.5822 26.3419C90.6677 26.3419 90.4966 26.2129 90.2115 26.0553C89.9263 25.8977 89.6411 25.7687 89.5555 25.7687C89.47 25.7687 89.6411 25.8977 89.9263 26.0553Z" fill="white"/>
<path d="M0.066009 27.7032C-0.133617 28.1044 0.151563 29.308 0.493779 29.4083C0.607851 29.4513 1.66302 29.437 2.83226 29.394L4.97111 29.308L4.85703 28.8925C4.74296 28.4769 4.71444 28.4769 3.11744 28.5056C1.80561 28.5342 1.49191 28.5056 1.43487 28.305C1.34932 28.1044 1.57746 28.0614 2.63263 28.0614C3.83039 28.0614 3.94446 28.0327 3.94446 27.7032C3.94446 27.3593 3.88742 27.3449 2.09079 27.3449C0.351189 27.3449 0.237117 27.3736 0.066009 27.7032Z" fill="white"/>
<path d="M97.9683 29.0071C97.5405 32.5177 95.0879 36.1 90.8958 39.3957C90.1258 39.9975 89.4984 40.5563 89.4984 40.6423C89.4984 40.7283 89.7836 40.8859 90.1258 40.9719C90.8958 41.1868 91.181 41.0149 93.5195 38.9801C97.2268 35.7274 99.3086 32.2312 99.5368 28.9355C99.6223 27.7462 99.6223 27.7318 98.8808 27.6315L98.1394 27.5312L97.9683 29.0071Z" fill="white"/>
<path d="M27.7855 28.305C28.1848 29.9958 29.3825 31.8013 31.0936 33.3058C31.7495 33.8933 31.9206 34.1942 31.778 34.5238L31.6069 34.9537L32.6906 34.5525C33.261 34.3375 33.7743 34.1512 33.8313 34.1369C33.8884 34.1226 33.4321 33.75 32.8332 33.2915C29.8388 31.0562 29.0118 30.1105 28.527 28.4053C28.2418 27.4596 27.5574 27.3593 27.7855 28.305Z" fill="white"/>
<path d="M33.4606 27.8178C33.2039 28.1474 34.4302 30.2107 35.5139 31.2424C36.1128 31.8299 37.4531 32.7183 38.6794 33.3775C40.7042 34.4665 40.8468 34.5095 41.3316 34.2802C41.8449 34.0509 41.8164 34.0079 40.3334 33.3058C38.7079 32.5034 36.6831 31.0562 36.5691 30.569C36.5405 30.4113 36.3124 29.8668 36.0557 29.351C35.7991 28.8352 35.5995 28.2477 35.5995 28.0184C35.5995 27.6745 35.5139 27.6315 34.6013 27.6315C34.031 27.6315 33.5176 27.7175 33.4606 27.8178Z" fill="white"/>
<path d="M100.963 29.7092C100.449 32.4891 98.995 35.2975 96.9132 37.6045L96.0292 38.5932L96.6566 38.8368C97.4266 39.1521 97.9399 39.1664 98.2821 38.8655C98.5102 38.6505 98.7384 38.6792 100.278 39.1521C101.219 39.4386 102.104 39.6679 102.246 39.6679C102.417 39.6679 102.931 39.2237 103.387 38.6792L104.271 37.7048L102.275 37.2176C100.592 36.8164 100.25 36.7734 100.022 36.9454C99.765 37.1173 99.765 37.103 99.9076 36.8737C100.022 36.7161 100.164 36.4869 100.25 36.3579C100.364 36.1573 100.649 36.1716 102.417 36.5442C104.356 36.9597 104.442 36.974 104.813 36.7161C105.412 36.3149 106.125 34.925 105.839 34.7817C105.554 34.6384 102.417 34.0796 101.904 34.0796C101.704 34.0796 101.391 34.3662 101.191 34.7244C100.991 35.0826 100.763 35.3549 100.706 35.3262C100.649 35.2832 100.906 34.7244 101.305 34.0653C102.474 32.0162 103.33 28.5342 102.788 28.09C102.674 27.9897 102.303 27.9181 101.932 27.9181C101.334 27.9181 101.276 27.9897 100.963 29.7092ZM103.872 35.1972C104.1 35.3835 103.729 35.9424 103.358 35.9424C102.674 35.9424 102.275 35.6844 102.474 35.3835C102.645 35.0826 103.586 34.968 103.872 35.1972ZM99.2232 37.9054C98.881 38.192 98.8239 38.106 99.0806 37.7335C99.1947 37.6045 99.3373 37.5329 99.3943 37.5759C99.4799 37.6045 99.3943 37.7621 99.2232 37.9054Z" fill="white"/>
<path d="M32.6334 29.0214C33.546 30.8699 36.8256 33.5637 39.3067 34.4951C40.8181 35.054 40.59 34.8104 38.6793 33.8217C35.7989 32.3601 34.2019 30.9845 33.3179 29.2364C33.1468 28.9068 32.8901 28.6346 32.719 28.6346C32.5764 28.6346 32.5194 28.8065 32.6334 29.0214Z" fill="white"/>
<path d="M90.3256 28.9211C89.7267 29.2364 89.6412 30.6406 90.2115 30.6406C90.7534 30.6406 90.953 30.2537 90.8674 29.3797C90.8389 28.9641 90.8104 28.6346 90.7819 28.6489C90.7819 28.6489 90.5823 28.7778 90.3256 28.9211Z" fill="white"/>
<path d="M103.529 29.0358C103.615 29.3797 103.815 29.4513 105.326 29.6662C107.836 30.0101 108.092 29.9958 107.978 29.523C107.893 29.1217 107.493 29.0358 104.385 28.7349C103.472 28.6489 103.444 28.6632 103.529 29.0358Z" fill="white"/>
<path d="M91.0955 30.1678C90.8958 31.5577 90.1829 33.1769 89.0422 34.7531C88.2437 35.885 88.2151 35.885 86.2189 35.6558C84.8785 35.4982 84.5078 35.6271 83.7663 36.4439C83.1389 37.1173 83.0819 37.9484 83.5952 38.2493C83.7663 38.364 84.4222 38.6219 84.9926 38.8225C85.5915 39.0088 86.0763 39.2237 86.0763 39.3097C86.0763 39.3813 85.2778 39.9258 84.2797 40.5133C82.0267 41.8603 81.9127 41.9319 82.1408 42.0465C82.483 42.2042 84.023 41.5307 85.7341 40.4847C87.7589 39.2237 88.9281 38.3783 88.9281 38.1347C88.9281 38.0344 88.3007 37.7765 87.5022 37.5472C86.7322 37.3323 86.0763 37.1173 86.0763 37.06C86.0763 36.8451 87.3311 36.6302 88.2437 36.7018C88.814 36.7448 89.2988 36.7161 89.4699 36.6015C90.0118 36.2863 91.8084 33.3488 92.3788 31.9159C92.664 31.1278 92.9206 30.1391 92.9206 29.7092C92.9206 28.9355 92.8921 28.9211 92.0936 28.9211H91.2951L91.0955 30.1678Z" fill="white"/>
<path d="M15.7224 29.3223C14.6958 29.7236 14.6102 30.2824 15.4658 30.6979C16.3498 31.1565 17.6902 31.1851 18.4887 30.7839C20.2283 29.9098 17.6617 28.5486 15.7224 29.3223Z" fill="white"/>
<path d="M95.3447 30.1104C95.0596 31.3427 94.3466 33.0479 93.6052 34.2659C93.2344 34.8963 92.9778 35.4408 93.0348 35.4695C93.2629 35.5841 95.0311 33.3201 95.6584 32.0878C96.4284 30.5546 96.5425 29.5659 95.9436 29.4513C95.6299 29.394 95.4873 29.5516 95.3447 30.1104Z" fill="white"/>
<path d="M103.044 30.8412C102.93 31.2711 102.902 31.701 102.959 31.8013C103.13 32.0735 107.123 32.661 107.294 32.4318C107.664 31.9446 107.778 30.6693 107.465 30.569C107.123 30.4544 104.128 30.0818 103.558 30.0675C103.358 30.0675 103.159 30.397 103.044 30.8412Z" fill="white"/>
<path d="M2.29029 30.6693C0.636244 30.7982 0.493654 30.8412 0.636244 31.1135C0.721798 31.2854 0.807352 31.5147 0.807352 31.6293C0.807352 31.7583 1.0355 31.7869 1.46327 31.744C3.85878 31.4574 3.94433 31.4717 3.94433 31.7726C3.94433 31.9732 3.77323 32.0735 3.40249 32.0735C2.60399 32.0735 1.37771 32.6324 1.37771 32.9906C1.37771 33.1769 1.5203 33.5208 1.69141 33.7787C2.00511 34.2229 2.03363 34.2372 3.34545 34.1512C6.05467 33.965 6.62503 33.5494 5.85504 32.3028C5.59838 31.9016 5.3132 31.3284 5.19913 31.0275C4.9995 30.44 5.11357 30.4543 2.29029 30.6693ZM4.65728 33.1482C4.65728 33.664 4.14396 33.75 3.40249 33.3775C2.6325 32.9906 2.66102 32.8186 3.45953 32.747C4.45766 32.6467 4.65728 32.7183 4.65728 33.1482Z" fill="white"/>
<path d="M21.5401 32.747C21.2835 32.9619 22.3386 34.1512 22.8234 34.1942C23.2797 34.2372 23.2512 34.1799 22.7664 33.4778C22.2816 32.7613 21.8253 32.5034 21.5401 32.747Z" fill="white"/>
<path d="M14.9809 33.1052C14.1539 33.4348 13.9828 33.9506 14.4106 34.7961C15.1806 36.3293 16.1217 36.6158 18.3746 36.0427C20.2568 35.5698 20.8842 35.1973 20.656 34.7244C20.2853 33.9936 18.232 33.9363 17.7757 34.6528C17.5476 35.011 17.1768 35.0253 16.8061 34.6814C16.6065 34.5095 16.692 34.3375 17.0913 34.0939C17.7187 33.7071 17.7757 33.3488 17.2909 33.1052C16.8346 32.876 15.5798 32.8903 14.9809 33.1052Z" fill="white"/>
<path d="M81.0002 34.6671C80.0021 35.5841 79.9165 35.9567 80.8861 35.2689C81.485 34.839 82.3691 34.008 82.3691 33.8647C82.3691 33.5924 81.7987 33.922 81.0002 34.6671Z" fill="white"/>
<path d="M8.93509 34.5095C8.84954 34.5811 8.90658 34.6528 9.04917 34.6528C9.22027 34.6528 9.36286 34.5811 9.36286 34.5095C9.36286 34.4235 9.30583 34.3662 9.24879 34.3662C9.16324 34.3662 9.02065 34.4235 8.93509 34.5095Z" fill="white"/>
<path d="M33.489 34.6671C33.0898 34.8247 32.7476 35.011 32.7476 35.0683C32.7476 35.1256 33.4035 35.5412 34.202 35.9854C35.6564 36.8021 36.5975 37.0314 36.626 36.5442C36.626 36.4152 36.7401 36.1716 36.8256 35.9997C36.9967 35.7704 36.7686 35.5412 35.856 35.0396C35.2286 34.6671 34.6012 34.3662 34.4586 34.3662C34.3446 34.3662 33.9168 34.4951 33.489 34.6671Z" fill="white"/>
<path d="M41.6167 34.7101C41.2745 34.882 41.0178 35.0683 41.0178 35.1256C41.0178 35.4265 46.5788 36.5012 49.3736 36.7448C50.2862 36.8164 50.4288 36.8881 50.4288 37.232C50.4288 37.5329 50.5428 37.6332 50.9421 37.6045C51.3128 37.5759 51.4554 37.4039 51.5125 36.7735L51.598 35.9997L49.5447 35.8421C48.2044 35.7274 46.6074 35.4552 44.8678 35.0396L42.2156 34.3948L41.6167 34.7101Z" fill="white"/>
<path d="M4.60037 35.6128C2.7467 35.9854 2.40448 36.2719 3.08891 36.8021C3.31706 36.9884 3.57372 36.9597 4.77148 36.6302C5.94072 36.3149 6.19738 36.2863 6.33997 36.4582C6.45404 36.6015 6.11182 36.7591 5.22777 36.9741C3.97297 37.275 3.71631 37.5329 4.1726 37.9198C4.37223 38.0631 4.85703 38.0058 6.31145 37.6762C7.36662 37.4326 8.22216 37.2033 8.22216 37.1747C8.22216 36.9741 6.7107 35.2259 6.5396 35.2259C6.45404 35.2403 5.56998 35.3979 4.60037 35.6128Z" fill="white"/>
<path d="M8.878 35.4552C8.59282 35.8134 9.81909 38.106 10.9883 39.367C12.4142 40.9575 11.9579 40.9432 10.3324 39.3383C9.13466 38.1634 8.84948 37.9628 8.36467 38.0344C7.50913 38.1634 4.97103 38.8941 4.88548 39.0374C4.82844 39.1091 5.05658 39.3813 5.37028 39.6393C5.91212 40.0835 5.96916 40.0978 6.56804 39.8829C7.4521 39.5819 7.90838 39.6106 8.27912 40.0261C8.47875 40.2554 8.82096 40.3844 9.22021 40.3844C9.59095 40.3844 10.0758 40.542 10.3324 40.7283C10.7602 41.0722 10.7317 41.0865 9.3628 41.5307C8.5643 41.7886 7.9369 42.0465 7.9369 42.1325C7.9369 42.3474 8.79244 43.1069 9.02059 43.1069C9.13466 43.1069 9.93316 42.8776 10.7887 42.6054C11.6442 42.3331 12.4998 42.1039 12.6994 42.1039C12.8705 42.1039 13.5835 42.5051 14.2964 43.0066C15.0094 43.4938 15.9505 44.1099 16.4353 44.3678L17.2908 44.8264L15.7223 45.4855C14.3249 46.0873 14.2109 46.1733 14.6101 46.3739C15.0094 46.5888 15.1805 46.5315 16.4638 45.8294C17.8041 45.07 17.8897 45.0556 18.3745 45.2849C18.8308 45.5142 18.8308 45.5428 18.4315 45.5428C17.7186 45.5428 15.5512 46.8468 15.9505 47.033C16.1786 47.1477 16.6349 46.9757 17.6615 46.4169C19.0019 45.7004 19.1445 45.6575 19.5723 45.8867C19.943 46.073 19.9715 46.116 19.6293 46.116C19.0019 46.116 16.6919 47.5059 17.1197 47.6349C17.3193 47.7065 17.9752 47.4486 18.8308 46.9901C20.0571 46.3166 20.77 46.159 20.77 46.5602C20.77 46.6462 20.1996 47.0474 19.4867 47.4629L18.2319 48.208L19.1445 48.6666L20.0571 49.1394L21.54 48.3083L22.9944 47.4772L23.8785 47.8928C24.8481 48.3513 24.734 48.3656 26.9869 47.4486C28.0136 47.0187 28.1277 47.0044 28.7265 47.205C29.3254 47.4199 29.3254 47.4486 28.8976 47.7782C28.4699 48.1221 28.4699 48.1364 30.4376 48.7669C33.1468 49.6553 33.6031 49.7269 34.4016 49.4117C35.029 49.1537 35.0861 49.1537 36.9397 49.5836C37.9949 49.8129 39.1926 50.0708 39.5919 50.1568L40.3048 50.3001L39.6489 50.558C39.0501 50.8159 39.0215 50.8302 39.5063 50.9735C39.7915 51.0452 40.5045 51.1455 41.1034 51.2028C42.0444 51.2888 42.1585 51.2744 42.1585 51.0165C42.1585 50.5866 42.5293 50.5293 43.9837 50.7299C45.2099 50.8876 45.2955 50.9449 45.2955 51.3604C45.2955 51.6757 45.4666 51.8476 45.8088 51.9049C47.7766 52.2202 56.446 52.3921 57.2445 52.1485C57.4727 52.0769 57.5582 51.9193 57.4727 51.7903C57.3301 51.604 56.8168 51.561 54.849 51.561C53.5087 51.561 52.425 51.5037 52.425 51.4321C52.425 51.3747 53.7939 51.2744 55.5049 51.2315C58.9271 51.1455 64.1174 50.7156 64.1174 50.5293C64.1174 50.2714 63.2048 50.2571 60.3815 50.4863C54.1076 50.9879 46.094 50.7013 40.59 49.7699C35.6849 48.9531 30.2095 47.4772 26.331 45.9154C24.734 45.2706 24.5914 45.2276 24.2207 45.4569C23.9925 45.6001 24.1066 45.7864 24.791 46.2449C26.0458 47.119 25.5325 47.1763 23.964 46.3309C23.2226 45.944 22.4811 45.6431 22.31 45.6575C21.5115 45.7434 14.3249 41.3587 12.9846 39.9975C12.4713 39.453 12.4427 39.3383 12.7564 38.8368C13.0987 38.3496 13.0701 38.2207 12.6139 37.7908C12.3572 37.5186 11.7583 36.8451 11.3591 36.3006C10.7031 35.4408 10.475 35.2976 9.81909 35.2546C9.30577 35.2259 9.02059 35.2832 8.878 35.4552Z" fill="white"/>
<path d="M25.5041 36.2576C27.1011 37.8195 30.3807 39.6966 34.7154 41.502L37.9665 42.8633L36.9969 43.0209C36.398 43.1212 35.8847 43.3361 35.628 43.5941C35.1717 44.0669 35.3713 44.2962 36.5691 44.7404C37.2821 45.0126 37.3961 45.0126 38.1091 44.812C38.5368 44.6974 39.0217 44.4538 39.1928 44.2675C39.9057 43.5511 38.8505 42.8776 32.6336 40.0405C31.0936 39.3383 28.8122 38.0917 27.5574 37.275C26.3026 36.4582 25.2189 35.7991 25.1619 35.7991C25.1049 35.7991 25.2475 36.014 25.5041 36.2576ZM38.3943 43.4221C38.5939 43.5224 38.7365 43.723 38.7365 43.895C38.7365 44.0669 38.5939 44.2675 38.3943 44.3678C38.1946 44.4681 37.7954 44.5398 37.4532 44.5398C37.1109 44.5398 36.7117 44.4681 36.5121 44.3678C36.3124 44.2675 36.1699 44.0669 36.1699 43.895C36.1699 43.723 36.3124 43.5224 36.5121 43.4221C36.7117 43.3218 37.1109 43.2502 37.4532 43.2502C37.7954 43.2502 38.1946 43.3218 38.3943 43.4221Z" fill="white"/>
<path d="M43.8126 36.3293C44.0122 36.3723 44.2689 36.3579 44.3545 36.3149C44.4685 36.272 44.2974 36.229 43.9837 36.2433C43.67 36.2433 43.5845 36.2863 43.8126 36.3293Z" fill="white"/>
<path d="M18.6597 36.7018C18.1464 36.8881 18.1749 36.9167 18.7167 37.4612C19.5723 38.3066 21.9393 39.9258 23.6218 40.8572C24.9337 41.588 25.1903 41.6596 25.561 41.4877C25.9033 41.3014 25.7322 41.1438 24.2777 40.2124C23.3366 39.6249 21.8252 38.5502 20.9126 37.8195C20 37.103 19.2586 36.5155 19.23 36.5155C19.2015 36.5155 18.9449 36.6015 18.6597 36.7018Z" fill="white"/>
<path d="M45.0104 37.06C45.0104 37.2033 48.1759 37.8051 48.9173 37.8051C49.8299 37.8051 49.1455 37.5616 47.6626 37.3466C46.75 37.232 45.7804 37.0744 45.5237 37.017C45.2385 36.9597 45.0104 36.9741 45.0104 37.06Z" fill="white"/>
<path d="M37.1679 37.6619C39.0786 38.7222 47.4629 40.6137 49.0599 40.3557C49.2595 40.3128 48.5181 40.1838 47.4344 40.0405C44.8393 39.7109 41.7878 38.9945 39.2212 38.1061C37.0253 37.3466 36.3124 37.189 37.1679 37.6619Z" fill="white"/>
<path d="M81.7988 39.2667C81.0858 39.582 80.7721 39.7826 81.0858 39.6966C81.9414 39.453 83.681 38.6792 83.3673 38.6792C83.2247 38.6792 82.5117 38.9371 81.7988 39.2667Z" fill="white"/>
<path d="M75.3536 40.1551C73.3858 41.1438 74.5836 42.4191 77.6635 42.5624C78.4905 42.6054 78.405 42.6484 76.095 43.4938C71.5036 45.1846 65.1156 46.6032 60.3531 47.0044C59.0698 47.1047 58.1002 47.2767 57.7579 47.4486C56.8168 47.9215 57.5583 48.0218 60.1535 47.7638C66.9693 47.0904 71.8173 45.987 77.2928 43.8807C78.1768 43.5368 79.2035 43.2502 79.6027 43.2502C80.2872 43.2502 81.2283 42.8633 81.2283 42.5767C81.2283 42.4908 80.9716 42.2615 80.6294 42.0609C80.2301 41.7886 80.1446 41.6167 80.3157 41.4304C80.7435 41.0005 80.1731 40.2554 79.1464 39.9545C77.7205 39.5103 76.4943 39.582 75.3536 40.1551ZM78.8042 40.456C79.2035 40.6423 79.5172 40.8859 79.5172 40.9862C79.5172 41.2871 78.6902 41.8173 78.2054 41.8173C77.9772 41.8173 77.8061 41.8746 77.8061 41.9606C77.8061 42.2185 76.4087 42.1182 75.8098 41.8173C75.0684 41.4447 75.0969 40.9576 75.8384 40.4704C76.6083 39.9832 77.8631 39.9688 78.8042 40.456Z" fill="white"/>
<path d="M76.6084 41.7743C76.808 41.8173 77.0647 41.803 77.1502 41.76C77.2643 41.717 77.0932 41.674 76.7795 41.6883C76.4658 41.6883 76.3802 41.7313 76.6084 41.7743Z" fill="white"/>
<path d="M96.8846 40.3987C96.685 40.5993 96.3998 40.671 96.0291 40.6137C95.7439 40.5707 95.2306 40.4847 94.9454 40.4417C94.5176 40.3701 94.1184 40.5563 93.0632 41.3588C91.5803 42.5051 87.7589 44.7404 86.9318 44.9697C85.62 45.3136 86.333 44.7834 89.0707 43.3219C90.6962 42.4621 92.008 41.7313 91.9795 41.717C91.9225 41.7027 91.4377 41.7457 90.8388 41.8173C90.1829 41.8889 89.527 42.0896 89.1562 42.3475C88.814 42.5624 87.3881 43.3362 86.0193 44.0526C84.6504 44.7548 83.5097 45.4569 83.5097 45.5858C83.5097 45.8294 81.5704 46.6175 77.9772 47.8355C75.268 48.7382 70.7621 49.8416 67.4825 50.4004C65.5718 50.7156 65.087 50.8589 65.03 51.1025C64.8589 51.6327 65.6859 51.6184 69.3362 50.9879C74.8402 50.0422 78.8327 48.8959 84.3367 46.6748C87.217 45.5142 85.62 46.4599 82.483 47.7925C80.7149 48.5376 79.346 49.2254 79.289 49.3974C79.232 49.598 78.5475 49.8559 77.2072 50.2141C75.9239 50.558 75.2394 50.8159 75.2394 50.9879C75.2394 51.4034 76.3802 52.5641 76.7794 52.5641C77.2072 52.5641 83.1675 50.8016 83.7949 50.472C84.3367 50.2141 83.8234 49.7413 83.0534 49.8129C82.6256 49.8559 82.5971 49.8272 82.9108 49.641C83.4526 49.3114 83.8804 49.3544 84.3937 49.7699L84.8215 50.1281L87.0744 49.2254C88.3292 48.7239 89.6125 48.1651 89.8977 47.9931C90.4681 47.6779 90.4681 47.6779 89.1848 47.0331C88.1866 46.5316 88.0155 46.3596 88.3292 46.2593C88.6429 46.1733 89.1277 46.3023 90.0118 46.7035C90.7247 47.0044 91.3806 47.2623 91.4947 47.2623C91.5803 47.2623 92.0366 47.0761 92.4643 46.8468C93.4339 46.3453 93.3199 46.03 91.9225 45.4139C90.8103 44.9267 90.7247 44.7548 91.3521 44.3965C91.7799 44.1673 91.894 44.1959 93.2914 44.8407C94.1184 45.2276 94.8598 45.5429 94.9739 45.5429C95.088 45.5429 95.4017 45.3852 95.6583 45.199C96.0861 44.8551 96.0576 44.8264 94.8884 44.2962C94.2324 43.9953 93.5195 43.6944 93.2914 43.6084C92.9777 43.4795 93.0347 43.3792 93.7476 43.0496L94.6032 42.6484L95.858 43.1642C96.5424 43.4508 97.2839 43.6801 97.512 43.6801C97.7402 43.6801 98.3961 43.3792 98.995 43.0066L100.079 42.3331L99.1946 41.9606C98.3961 41.631 98.339 41.5737 98.7383 41.4018C99.3942 41.1295 99.3087 40.9289 98.3961 40.4847C97.4265 40.0262 97.3124 40.0118 96.8846 40.3987Z" fill="white"/>
<path d="M26.2172 41.76C25.8749 41.9749 25.6183 42.2185 25.6183 42.3188C25.6183 42.7057 26.7875 43.2502 27.6431 43.2502C29.3827 43.2502 30.2097 42.2901 28.9549 41.7026C28.0423 41.2728 26.9301 41.3014 26.2172 41.76Z" fill="white"/>
<path d="M30.4663 42.5911C30.4663 42.6197 30.6945 42.7343 30.9796 42.8347C31.4074 43.0209 31.4359 43.0066 31.0652 42.7773C30.6945 42.5481 30.4663 42.4764 30.4663 42.5911Z" fill="white"/>
<path d="M31.7211 43.0782C31.9492 43.2645 33.6032 43.8807 33.6032 43.7804C33.6032 43.7374 33.1184 43.5368 32.5481 43.3075C31.9777 43.0926 31.607 42.9779 31.7211 43.0782Z" fill="white"/>
<path d="M28.7552 43.809C28.7552 44.1959 34.6014 45.8581 39.1358 46.7608C41.5598 47.2337 46.1798 47.8355 47.4631 47.8355C48.4612 47.8355 49.003 48.1221 48.9175 48.6236C48.8604 48.8815 49.0886 48.9102 51.1134 48.9532C53.4518 48.9961 54.4215 48.7955 54.4215 48.2797C54.4215 48.1221 54.3074 48.1507 53.9652 48.38C53.7085 48.5663 53.2522 48.6952 52.7674 48.6952C51.8263 48.6952 51.6267 48.6236 50.6571 47.9645C49.773 47.3626 49.0316 47.205 46.3509 46.9758C43.9839 46.7895 40.2195 46.202 38.4514 45.7578C37.7384 45.5858 36.3981 45.3279 35.457 45.1846C33.6889 44.9267 31.4359 44.4109 30.1241 43.9523C29.3256 43.6514 28.7552 43.6084 28.7552 43.809Z" fill="white"/>
<path d="M52.2825 44.3822C50.9421 44.6831 50.1436 45.3136 50.1721 46.0014L50.2006 46.4742L50.4003 45.9727C50.828 44.898 51.6265 44.5398 53.5087 44.5398C55.3624 44.5398 56.6457 45.4999 55.8472 46.2736C55.6761 46.4169 55.3624 46.5459 55.1343 46.5459C54.6209 46.5459 54.5639 46.1017 55.0202 45.8724C55.562 45.6002 54.5924 44.9697 53.6228 44.9697C52.368 44.9697 51.5695 45.3422 51.5695 45.9154C51.5695 46.6319 51.9973 46.9471 53.1665 47.1047C55.7046 47.4629 57.5583 46.2163 56.3035 44.9983C55.562 44.2819 53.8509 44.0096 52.2825 44.3822Z" fill="white"/>
<path d="M26.1886 44.7977C26.1886 45.1846 31.1793 46.9757 34.9436 47.9501C40.9894 49.4977 47.2064 50.2714 53.737 50.2714C57.0736 50.2714 63.319 49.8989 65.8001 49.555C68.6519 49.1538 72.2737 48.4373 72.673 48.208C73.3289 47.8068 72.3593 47.8212 70.1349 48.251C60.9235 50.0278 51.5126 50.3144 42.8716 49.0535C38.0236 48.3513 32.1203 46.8468 28.2134 45.3422C26.5023 44.6688 26.1886 44.5971 26.1886 44.7977Z" fill="white"/>
<path d="M79.4886 45.8151C77.4638 46.5602 76.6368 47.0044 77.8346 46.6748C78.5475 46.4885 81.7986 45.2419 81.7986 45.1702C81.7986 45.0126 81.1712 45.1846 79.4886 45.8151Z" fill="white"/>
<path d="M73.6711 45.9154C71.3327 46.6462 68.4809 47.3053 65.2583 47.8498C63.4617 48.1507 62.1213 48.3943 62.2639 48.4086C62.8913 48.4086 66.6272 47.8355 68.6805 47.4056C70.5912 47.0044 74.9545 45.7578 74.9545 45.6001C74.9545 45.5142 74.8974 45.5285 73.6711 45.9154Z" fill="white"/>
<path d="M50.4288 46.6319C50.4288 46.7035 50.6285 46.8898 50.8566 47.0331C51.0847 47.1907 51.2844 47.2623 51.2844 47.1764C51.2844 47.1047 51.0847 46.9184 50.8566 46.7751C50.6285 46.6175 50.4288 46.5459 50.4288 46.6319Z" fill="white"/>
<path d="M73.7279 46.8038C73.0435 47.1907 73.129 47.6349 73.9846 47.9644C74.5834 48.208 74.8401 48.2367 75.3534 48.0934C75.6671 48.0074 76.0379 47.8641 76.1519 47.7781C76.4941 47.5346 76.4086 46.9041 76.0379 46.7178C75.5245 46.4599 74.2412 46.5172 73.7279 46.8038Z" fill="white"/>
<path d="M24.7626 49.1251C23.5934 49.5979 22.5952 50.0278 22.5667 50.0851C22.5097 50.1568 23.1371 50.429 23.9356 50.7013C25.5611 51.2458 25.4756 51.2601 26.7874 50.2714C27.044 50.0708 27.3577 49.9848 27.5574 50.0421C27.814 50.1138 27.7 50.3287 27.1866 50.8159C26.6733 51.2888 26.5878 51.5037 26.8159 51.5754C27.3007 51.733 27.4718 51.647 28.4699 50.7729L29.354 49.9848L30.4947 50.3717C31.721 50.7729 31.7495 50.8589 30.6943 51.8906L30.1525 52.4351L31.2362 52.65C31.8351 52.779 32.8047 53.0083 33.375 53.1515L34.4587 53.4238L34.915 52.8936C35.1717 52.5927 35.3713 52.2058 35.3713 52.0339C35.3713 51.7903 35.5424 51.7186 36.0557 51.733C36.7687 51.7616 36.7687 51.9049 35.9987 53.0369C35.5994 53.6244 35.5139 53.5814 37.3105 53.8823C37.5957 53.9396 37.9379 53.7534 38.3657 53.2948C38.8505 52.8076 38.9646 52.7503 38.822 53.0656C38.4227 53.9396 38.5083 54.0399 39.7916 54.2262C41.1605 54.4268 40.9608 54.5701 41.5882 53.0226C42.073 51.7473 42.1016 51.776 39.6775 51.3604C38.4798 51.1598 37.4816 51.0022 37.4531 51.0308C37.4246 51.0452 37.2535 51.1885 37.0539 51.3461C36.7116 51.6327 36.7116 51.6327 36.8828 51.3318C37.0253 51.0738 36.7402 50.9449 34.6584 50.4577C33.3465 50.1424 31.1506 49.512 29.7533 49.0678C28.3559 48.6236 27.1581 48.2653 27.0726 48.2797C26.9585 48.2797 25.9318 48.6666 24.7626 49.1251Z" fill="white"/>
<path d="M67.1119 51.733C66.0283 51.9049 65.0872 52.0482 65.0301 52.0626C65.0016 52.0769 65.0586 52.2918 65.1442 52.5498C65.2583 52.8507 65.4579 52.9796 65.7146 52.9366C65.9142 52.8937 66.5416 52.822 67.0834 52.7647C67.9104 52.693 68.1101 52.7217 68.1101 52.8937C68.1101 53.2949 68.766 53.8537 69.2223 53.8537C70.1063 53.8537 72.3878 53.3665 72.3878 53.1659C72.3878 53.0656 72.2452 52.693 72.0741 52.3348C71.8459 51.8763 71.6178 51.7187 71.3611 51.7617C71.133 51.8046 70.7908 51.8906 70.5626 51.9336C70.306 51.9766 70.0208 51.8906 69.8211 51.7187C69.4504 51.3604 69.6215 51.3604 67.1119 51.733Z" fill="white"/>
<path d="M42.4722 53.0226C42.2726 53.5241 42.0445 54.0686 41.9874 54.2262C41.8448 54.4842 41.9874 54.5415 42.7004 54.5988C43.6985 54.6704 43.613 54.7421 44.1548 53.2232C44.2974 52.7504 44.4115 52.3491 44.3544 52.3348C44.3259 52.3205 43.9552 52.2632 43.5559 52.2058C42.843 52.1199 42.7859 52.1485 42.4722 53.0226Z" fill="white"/>
<path d="M62.2637 52.3778C60.1248 52.5927 60.3245 52.4637 60.4956 53.6674C60.5811 54.2549 60.7237 54.7707 60.7808 54.7994C60.8663 54.8424 61.7789 54.7994 62.8341 54.6991L64.7448 54.5415L64.5737 54.0829C64.4881 53.8393 64.3455 53.3378 64.2314 52.9509C64.0318 52.2488 63.8892 52.2058 62.2637 52.3778Z" fill="white"/>
<path d="M44.7252 53.5098C44.4115 54.4268 44.4115 54.6131 44.7538 54.7278C45.4382 54.9427 45.4952 54.8854 45.6948 53.9826C45.9515 52.693 45.923 52.4208 45.4667 52.4208C45.21 52.4208 44.9819 52.779 44.7252 53.5098Z" fill="white"/>
<path d="M46.5504 53.7104C46.3222 54.7421 46.3222 54.8567 46.7785 54.8567C47.0352 54.8567 47.4344 54.8997 47.6626 54.9427C48.0048 55 48.1189 54.8137 48.2044 53.8967C48.3185 52.7647 48.1759 52.5641 47.2633 52.5641C46.9211 52.5641 46.75 52.822 46.5504 53.7104Z" fill="white"/>
<path d="M57.9574 53.4525C58.0429 53.868 58.1285 54.3839 58.1285 54.5988C58.1285 54.9284 58.2425 55 58.8699 55H59.6114L59.4118 53.954C59.1836 52.7503 59.1266 52.7074 58.3566 52.7074C57.8148 52.7074 57.7862 52.7647 57.9574 53.4525Z" fill="white"/>
</svg>
